<?xml version="1.0" encoding="utf-8"?>
<!-- Generator: Adobe Illustrator 25.0.0, SVG Export Plug-In . SVG Version: 6.00 Build 0)  -->
<svg version="1.1" id="Layer_1" xmlns="http://www.w3.org/2000/svg" xmlns:xlink="http://www.w3.org/1999/xlink" x="0px" y="0px"
	 viewBox="0 0 500 500" style="enable-background:new 0 0 500 500;" xml:space="preserve">
<style type="text/css">
	.st0{opacity:0.2;}
	.st1{fill:#263238;}
	.st2{fill:#37474F;}
	.st3{fill:#455A64;}
	.st4{fill:#03A9F4;}
	.st5{fill:#E6E6E6;}
	.st6{fill:#FAFAFA;}
	.st7{fill:#E0E0E0;}
	.st8{fill:#F5F5F5;}
	.st9{fill:#EBEBEB;}
	.st10{opacity:0.1;enable-background:new    ;}
</style>
<g>
	<g id="freepik--Shadow--inject-2" class="st0">
		<polygon id="freepik--shadow--inject-2" points="179.8,457.4 83.9,401.6 246.2,307.9 		"/>
		<path id="freepik--shadow--inject-2_1_" d="M41.3,398.2l39.1,22.5c1.6,0.8,3.6,0.8,5.3,0l53.9-31.4c0.8-0.3,1.3-1.2,0.9-2
			c-0.1-0.5-0.5-0.8-0.9-0.9l-39.1-22.5c-1.6-0.8-3.6-0.8-5.3,0l-53.9,31.4c-0.8,0.3-1.3,1.2-0.9,2
			C40.5,397.7,40.9,398.1,41.3,398.2z"/>
	</g>
	<g id="freepik--Cabinet--inject-2">
		<g id="freepik--cabinet--inject-2">
			<polygon class="st1" points="81.8,417.5 45,396.2 45,317.2 81.8,338.5 			"/>
			<polygon class="st2" points="81.8,338.5 134.3,308 134.3,387 81.8,417.5 			"/>
			<polygon class="st3" points="134.3,308 81.8,338.5 45,317.2 97.5,286.7 			"/>
			<path class="st1" d="M104.6,337.4l7.1-4.2c0.9-0.5,1.6-0.3,1.6,0.5c-0.1,1.1-0.8,2-1.6,2.4l-7.1,4.2c-0.9,0.5-1.6,0.3-1.6-0.5
				C102.9,338.9,103.6,338,104.6,337.4z"/>
			<polygon class="st1" points="86.1,378.5 128.1,354.3 129.1,354.8 128.1,383.4 129.1,384.1 87,408.3 86.1,407.8 			"/>
			<polygon class="st3" points="87,379.1 129.1,354.8 129.1,384.1 87,408.3 			"/>
			<path class="st1" d="M103.5,374.5l7.1-4.2c0.9-0.5,1.6-0.3,1.6,0.5c-0.1,1.1-0.8,2-1.6,2.6l-7.1,4.2c-0.9,0.5-1.6,0.3-1.6-0.5
				C102,376,102.7,375,103.5,374.5z"/>
			<polygon class="st1" points="86.1,342.1 128.1,317.9 129.1,318.4 128.1,347 129.1,347.7 87,371.9 86.1,371.4 			"/>
			<polygon class="st3" points="87,342.7 129.1,318.4 129.1,347.7 87,371.9 			"/>
			<path class="st1" d="M103.5,338.1l7.1-4.2c0.9-0.5,1.6-0.3,1.6,0.5c-0.1,1.1-0.8,2-1.6,2.6l-7.1,4.2c-0.9,0.5-1.6,0.3-1.6-0.5
				C102,339.6,102.7,338.6,103.5,338.1z"/>
		</g>
		<g id="freepik--cabinet--inject-2_1_">
			<polygon class="st1" points="81.8,335.1 45,313.8 45,234.8 81.8,256.1 			"/>
			<polygon class="st2" points="81.8,256.1 134.3,225.7 134.3,304.7 81.8,335.1 			"/>
			<polygon class="st3" points="134.3,225.7 81.8,256.1 45,234.8 97.5,204.4 			"/>
			<polygon class="st1" points="87,259.1 129.1,234.8 130,235.4 130,264.6 88,288.9 87,288.4 			"/>
			<path class="st1" d="M104.6,255.1l7.1-4.2c0.9-0.5,1.6-0.3,1.6,0.5c-0.1,1.1-0.8,2-1.6,2.6l-7.1,4.2c-0.9,0.5-1.6,0.3-1.6-0.5
				C102.9,256.5,103.6,255.6,104.6,255.1z"/>
			<polygon class="st1" points="86.1,296.2 128.1,271.8 128.1,301.2 129.1,301.7 87,326 86.1,325.4 			"/>
			<polygon class="st3" points="87,296.7 129.1,272.5 129.1,301.7 87,326 			"/>
			<path class="st1" d="M103.5,292.1l7.1-4.2c0.9-0.5,1.6-0.3,1.6,0.5c-0.1,1.1-0.8,2-1.6,2.4l-7.1,4.2c-0.9,0.5-1.6,0.3-1.6-0.5
				C102,293.6,102.7,292.7,103.5,292.1z"/>
			<polygon class="st1" points="87,259.1 129.1,234.8 129.1,264.1 87,288.4 			"/>
			<polygon class="st1" points="150.3,249.3 127.1,235.9 127.1,261.8 150.3,275 			"/>
			<polygon class="st4" points="102.8,292.5 102.8,256.1 111.8,250.9 113.3,253 139.6,237.8 139.6,271.2 			"/>
			<g class="st0">
				<polygon points="102.8,292.5 102.8,256.1 111.8,250.9 113.3,253 139.6,237.8 139.6,271.2 				"/>
			</g>
			<polygon class="st4" points="102.8,292.5 105.5,260.6 142.3,239.4 139.6,271.2 			"/>
			<polygon class="st2" points="108.1,273.5 88,261.9 88,287.8 108.1,299.4 			"/>
			<polygon class="st3" points="108.1,271.2 150.3,247 150.3,276.2 108.1,300.5 			"/>
			<path class="st1" d="M124.6,266.7l7.1-4.2c0.9-0.5,1.6-0.3,1.6,0.5c-0.1,1.1-0.8,2-1.6,2.6l-7.1,4.2c-0.9,0.5-1.6,0.3-1.6-0.5
				C123,268.1,123.7,267.2,124.6,266.7z"/>
			<polygon class="st1" points="108.1,271.2 106.7,270.4 106.7,299.7 108.1,300.5 			"/>
			<polygon class="st2" points="106.7,270.4 148.8,246.2 150.3,247 108.1,271.2 			"/>
		</g>
	</g>
	<g id="freepik--Window--inject-2">
		<g id="freepik--window--inject-2">
			<path class="st5" d="M459.7,60.3l-5.5-3.2L175.1,218.3v233.5c-0.1,1.5,0.5,3,1.8,3.8l0,0l5.5,3.2l0,0c1.3,0.7,3,0.4,4.2-0.4
				l267.3-154.5c3.5-2.3,5.7-6.1,5.8-10.1L459.7,60.3z"/>
			<path class="st6" d="M180.4,455c0,3.8,2.6,5.3,5.8,3.4l267.6-154.5c3.5-2.3,5.7-6.1,5.8-10.1V60.3L180.4,221.5V455z"/>
			<path class="st7" d="M458.4,62.6v231.2c-0.3,3.6-2.2,6.9-5.1,8.9L185.7,457.2c-0.5,0.4-1.2,0.5-1.9,0.7c-1.8,0-1.9-2-1.9-2.8
				V222.3L458.4,62.6 M459.7,60.3L180.4,221.5V455c0,2.7,1.3,4.2,3.2,4.2c0.9,0,1.9-0.3,2.6-0.8l267.6-154.5
				c3.5-2.3,5.7-6.1,5.8-10.1L459.7,60.3L459.7,60.3z"/>
			<polygon class="st4" points="180.4,221.5 180.4,246.8 459.7,85.6 459.7,60.3 			"/>
			<path class="st6" d="M355.7,130.3v5.4c0,1.1,0.8,1.6,1.8,1.1l85.9-49.6v-9.4l-85.9,49.6C356.3,128,355.8,129,355.7,130.3z"/>
			<path class="st3" d="M452.4,72.3c0.9-0.5,1.8-0.1,1.8,1.1v5.4c0,1.2-0.7,2.4-1.8,3l-9.2,5.3v-9.4L452.4,72.3z"/>
			<path class="st6" d="M451.8,79.8l-1.1-0.3c0.1-0.4,0.1-0.9,0.1-1.3c0.1-0.8-0.3-1.6-0.9-2.2c-0.4-0.3-1.1-0.3-1.5,0
				c-1.3,1.1-2,2.6-2,4.3c-0.1,0.8,0.3,1.6,0.9,2.2c0.1,0.1,0.4,0.1,0.7,0.1s0.5-0.1,0.8-0.3c0.8-0.5,1.3-1.3,1.6-2.3l1.1,0.3h0.1
				c0.1,0,0.3-0.1,0.4-0.3C452,80,451.9,79.8,451.8,79.8z M448.5,81.7c-0.3,0.1-0.5,0.1-0.7,0.1c-0.4-0.4-0.7-0.9-0.5-1.5
				c0-1.3,0.5-2.7,1.6-3.6c0.1-0.1,0.3-0.1,0.5-0.1c0.1,0,0.1,0,0.3,0.1c0.4,0.4,0.7,0.9,0.5,1.5C450.2,79.6,449.6,80.9,448.5,81.7
				L448.5,81.7z"/>
			<path class="st1" d="M452.6,41.2c-1.3-0.7-3-0.5-4.2,0.4L180.8,196c-3.5,2.3-5.7,6.1-5.8,10.1v12.3l5.5,3.2L459.7,60.3V48
				c0.1-1.5-0.5-3-1.6-3.8C457,43.7,453.5,41.7,452.6,41.2z"/>
			<path class="st2" d="M180.4,209.2c0.3-4,2.4-7.8,5.8-10.1L453.8,44.7c3.2-1.9,5.8-0.4,5.8,3.4v12.3L180.4,221.5V209.2z"/>
			<path class="st3" d="M458.1,44.4c-1.3-0.7-3-0.5-4.2,0.4L186.2,199.1c-1.8,1.1-3.1,2.6-4.2,4.3l-5.5-3.1c0.9-1.8,2.4-3.2,4.2-4.3
				L448.4,41.6c1.2-0.9,2.8-1.1,4.2-0.4C453.5,41.7,457,43.7,458.1,44.4L458.1,44.4z"/>
			<path class="st4" d="M426.8,66.6c-1.6,1.1-2.6,2.8-2.7,4.7c0,1.8,1.2,2.4,2.7,1.6c1.6-1.1,2.6-2.8,2.7-4.7
				C429.5,66.5,428.3,65.7,426.8,66.6z"/>
			<path class="st4" d="M436.4,61.1c-1.6,1.1-2.6,2.8-2.7,4.7c0,1.8,1.2,2.4,2.7,1.6c1.6-1.1,2.6-2.8,2.7-4.7
				C439.1,61,437.9,60.2,436.4,61.1z"/>
			<path class="st4" d="M446,55.6c-1.6,1.1-2.6,2.8-2.7,4.7c0,1.8,1.2,2.4,2.7,1.6c1.6-1.1,2.6-2.8,2.7-4.7
				C448.8,55.4,447.5,54.6,446,55.6z"/>
			<path class="st8" d="M186.2,458.3l48.9-28.3V215.2l-54.7,31.7v208.2C180.4,458.7,183,460.2,186.2,458.3z"/>
			<path class="st7" d="M233.8,217.5v211.9l-48.3,27.9c-0.5,0.4-1.2,0.5-1.9,0.7c-1.8,0-1.9-2-1.9-2.8V247.5L233.8,217.5
				 M235.2,215.2l-54.7,31.7v208.2c0,2.7,1.3,4.2,3.2,4.2c0.9,0,1.9-0.3,2.6-0.8l48.9-28.3L235.2,215.2L235.2,215.2z"/>
			<path class="st7" d="M198.6,248.9l26.1-15.1c0.9-0.5,1.8-0.1,1.8,1.1v2.3c-0.1,1.2-0.7,2.3-1.8,3l-26.1,15.1
				c-0.9,0.5-1.8,0.1-1.8-1.1v-2.3C196.9,250.7,197.6,249.7,198.6,248.9z"/>
			<path class="st4" d="M191.4,255.2v2.3c0,1.2-0.7,2.4-1.8,3l-2,1.1c-0.9,0.5-1.8,0.1-1.8-1.1v-2.3c0-1.2,0.7-2.4,1.8-3l2-1.1
				C190.7,253.6,191.4,254,191.4,255.2z"/>
			<path class="st7" d="M198.6,261.5l26.1-15.1c0.9-0.5,1.8-0.1,1.8,0.9v2.3c-0.1,1.2-0.7,2.4-1.8,3.1l-26.1,15.1
				c-0.9,0.5-1.8,0.1-1.8-1.1v-2.3C196.9,263.3,197.6,262.2,198.6,261.5z"/>
			<path class="st4" d="M191.4,267.7v2.3c0,1.2-0.7,2.4-1.8,3l-2,1.2c-0.9,0.5-1.8,0.1-1.8-1.1v-2.3c0-1.2,0.7-2.4,1.8-3l2-1.2
				C190.7,266.1,191.4,266.7,191.4,267.7z"/>
			<path class="st7" d="M198.6,274.1l26.1-15.1c0.9-0.5,1.8-0.1,1.8,1.1v2.3c0,1.2-0.7,2.3-1.8,3l-26.1,15.1
				c-0.9,0.5-1.8,0.1-1.8-0.9v-2.3C196.9,276,197.6,274.7,198.6,274.1z"/>
			<path class="st4" d="M191.4,280.3v2.3c0,1.2-0.7,2.4-1.8,3l-2,1.2c-0.9,0.5-1.8,0.1-1.8-1.1v-2.3c0.1-1.2,0.7-2.3,1.8-3l2-1.1
				C190.7,278.8,191.4,279.2,191.4,280.3z"/>
			<path class="st7" d="M198.6,315.9l26.1-15.1c0.9-0.5,1.8-0.1,1.8,1.1v2.3c0,1.2-0.7,2.3-1.8,3l-26.1,15.1
				c-0.9,0.5-1.8,0.1-1.8-1.1v-2.3C196.9,317.7,197.6,316.5,198.6,315.9z"/>
			<path class="st4" d="M191.4,322.1v2.3c0,1.2-0.7,2.4-1.8,3l-2,1.2c-0.9,0.5-1.8,0.1-1.8-1.1v-2.3c0-1.2,0.7-2.4,1.8-3l2-1.2
				C190.7,320.6,191.4,321,191.4,322.1z"/>
			<path class="st7" d="M198.6,327l26.1-15.1c0.9-0.5,1.8-0.1,1.8,1.1v2.3c0,1.2-0.7,2.3-1.8,3l-26.1,15.1c-0.9,0.5-1.8,0.1-1.8-1.1
				V330C196.9,328.8,197.6,327.7,198.6,327z"/>
			<path class="st4" d="M191.4,333.2v2.3c0,1.2-0.7,2.4-1.8,3l-2,1.1c-0.9,0.5-1.8,0.1-1.8-1.1v-2.3c0.1-1.2,0.7-2.3,1.8-3l2-1.1
				C190.7,331.6,191.4,332.2,191.4,333.2z"/>
			<path class="st7" d="M198.6,338.2l26.1-15.1c0.9-0.5,1.8-0.1,1.8,1.1v2.3c-0.1,1.2-0.7,2.3-1.8,3l-26.1,15.1
				c-0.9,0.5-1.8,0.1-1.8-1.1v-2.3C196.9,340,197.6,338.9,198.6,338.2z"/>
			<path class="st4" d="M191.4,344.4v2.3c0,1.2-0.7,2.4-1.8,3l-2,1.1c-0.9,0.5-1.8,0.1-1.8-1.1v-2.3c0-1.2,0.7-2.4,1.8-3l2-1.1
				C190.7,342.8,191.4,343.3,191.4,344.4z"/>
			<polygon class="st4" points="196.9,287.8 196.9,291.9 200.3,287.8 			"/>
			<path class="st7" d="M202.4,287c0,0.8,0.5,1.1,1.2,0.7l21.8-12.5c0.7-0.4,1.1-1.2,1.2-2c0-0.8-0.5-1.1-1.2-0.7l-21.8,12.7
				C202.8,285.5,202.4,286.2,202.4,287z"/>
			<polygon class="st4" points="196.9,294.2 196.9,298.2 200.3,294.2 			"/>
			<path class="st7" d="M202.4,293.3c0,0.7,0.5,1.1,1.2,0.7l21.8-12.7c0.7-0.4,1.1-1.2,1.2-2c0-0.8-0.5-1.1-1.2-0.7l-21.8,12.7
				C202.8,291.9,202.4,292.5,202.4,293.3z"/>
			<polygon class="st4" points="196.9,300.5 196.9,304.4 200.3,300.5 			"/>
			<path class="st7" d="M202.4,299.7c0,0.7,0.5,1.1,1.2,0.7l21.8-12.7c0.7-0.4,1.1-1.2,1.2-2c0-0.8-0.5-1.1-1.2-0.7l-21.8,12.7
				C202.8,298.2,202.4,298.9,202.4,299.7z"/>
			<polygon class="st4" points="196.9,306.8 196.9,310.7 200.3,306.8 			"/>
			<path class="st7" d="M202.4,306c0,0.7,0.5,1.1,1.2,0.7l21.8-12.7c0.7-0.4,1.1-1.2,1.2-2c0-0.8-0.5-1.1-1.2-0.7L203.6,304
				C202.8,304.5,202.4,305.2,202.4,306z"/>
			<path class="st4" d="M251.6,222.7v32.9c0,1.3,0.9,1.9,2.2,1.2l36.3-20.9c1.3-0.8,2.2-2.2,2.2-3.8v-27.1c0-1.3-0.9-1.9-2.2-1.2
				L269,216c-1.2,0.7-2.2,0.1-2.2-1.2V214c0-1.3-0.9-1.9-2.2-1.2l-10.9,6.2C252.6,219.7,251.7,221.2,251.6,222.7z"/>
			<path class="st7" d="M258.8,261.8v2.2c0,1.1,0.7,1.5,1.6,0.9l27.2-15.6c0.9-0.7,1.6-1.6,1.6-2.8v-2.2c0-1.1-0.7-1.5-1.6-0.9
				L260.4,259C259.4,259.6,258.8,260.7,258.8,261.8z"/>
			<path class="st4" d="M302,193.7v32.9c0,1.3,0.9,1.9,2.2,1.2l36.3-20.9c1.2-0.8,2-2.3,2.2-3.8v-27.1c0-1.3-0.9-1.9-2.2-1.2
				l-21,12.1c-1.2,0.7-2.2,0.1-2.2-1.2V185c0-1.3-0.9-1.9-2.2-1.2l-10.9,6.3C303,190.9,302.2,192.3,302,193.7z"/>
			<path class="st7" d="M309.2,233v2.2c0,1.1,0.7,1.5,1.6,0.9l27.2-15.8c0.9-0.7,1.6-1.6,1.6-2.8v-2.2c0-1.1-0.7-1.5-1.6-0.9
				L310.8,230C309.8,230.8,309.2,231.7,309.2,233z"/>
			<path class="st4" d="M251.6,288.9v32.9c0,1.3,0.9,1.9,2.2,1.2l36.3-20.9c1.2-0.8,2-2.2,2.2-3.6v-27.1c0-1.3-0.9-1.9-2.2-1.2
				l-21,12.1c-1.2,0.7-2.2,0.1-2.2-1.2v-0.8c0-1.3-0.9-1.9-2.2-1.2l-10.9,6.3C252.6,286.1,251.7,287.4,251.6,288.9z"/>
			<path class="st7" d="M258.8,328v2.2c0,1.1,0.7,1.5,1.6,0.9l27.2-15.6c0.9-0.7,1.6-1.6,1.6-2.8v-2.2c0-1.1-0.7-1.5-1.6-0.9
				l-27.2,15.6C259.4,325.8,258.8,326.9,258.8,328z"/>
			<path class="st4" d="M302,259.9v32.9c0,1.3,0.9,1.9,2.2,1.2l36.3-20.9c1.2-0.8,2-2.2,2.2-3.8v-27.1c0-1.3-0.9-1.9-2.2-1.2
				l-21,12.1c-1.2,0.7-2.2,0.1-2.2-1.2v-0.8c0-1.3-0.9-1.9-2.2-1.2l-10.9,6.3C303,257.1,302.2,258.4,302,259.9z"/>
			<path class="st7" d="M309.2,299.1v2.2c0,1.1,0.7,1.5,1.6,0.9l27.2-15.6c0.9-0.7,1.6-1.6,1.6-2.8v-2.2c0-1.1-0.7-1.5-1.6-0.9
				l-27.2,15.6C309.8,297,309.2,297.9,309.2,299.1z"/>
			<path class="st4" d="M353,163.3v32.9c0,1.3,0.9,1.9,2.2,1.2l36.3-20.9c1.2-0.8,2-2.3,2.2-3.8v-27.1c0-1.3-0.9-1.9-2.2-1.2
				l-21,12.1c-1.2,0.7-2.2,0.1-2.2-1.2v-0.8c0-1.3-0.9-1.9-2.2-1.2l-10.9,6.3C353.8,160.3,353,161.8,353,163.3z"/>
			<path class="st7" d="M359.4,204v2.2c0,1.1,0.7,1.5,1.6,0.9l27.2-15.6c0.9-0.7,1.6-1.6,1.6-2.8v-2.2c0-1.1-0.7-1.5-1.6-0.9
				l-27.1,15.6C360.1,201.8,359.6,202.9,359.4,204z"/>
			<path class="st4" d="M402.7,135.9v32.9c0,1.3,0.9,1.9,2.2,1.2l36.3-20.9c1.2-0.8,2-2.3,2.2-3.8v-27.1c0-1.3-0.9-1.9-2.2-1.2
				l-21,12.1c-1.2,0.7-2.2,0.1-2.2-1.2v-0.8c0-1.3-0.9-1.9-2.2-1.2l-10.9,6.3C403.6,133.1,402.8,134.4,402.7,135.9z"/>
			<path class="st7" d="M409.8,175.1v2c0,1.1,0.7,1.5,1.6,0.9l27.2-15.6c0.9-0.7,1.6-1.6,1.6-2.8v-2.2c0-1.1-0.7-1.5-1.6-0.9
				l-27.2,15.6C410.5,172.8,409.8,173.9,409.8,175.1z"/>
			<path class="st7" d="M359.4,270.2v2.2c0,1.1,0.7,1.5,1.6,0.9l27.2-15.6c0.9-0.7,1.6-1.6,1.6-2.8v-2.2c0-1.1-0.7-1.5-1.6-0.9
				l-27.1,15.6C360.1,268,359.6,269.1,359.4,270.2z"/>
			<path class="st6" d="M360.1,223.9l28.2-16.3c1.3-0.8,2.3-0.1,2.3,1.3v32.5c-0.1,1.6-0.9,3.1-2.3,4l-28.2,16.3
				c-1.3,0.8-2.3,0.1-2.3-1.3V228C358,226.2,358.8,224.7,360.1,223.9z"/>
			<path class="st9" d="M359.2,262.7c-0.3,0-0.7-0.1-0.9-0.3c-0.7-0.4-1.1-1.2-1.1-2.2v-32.5c0.1-1.9,1.1-3.6,2.7-4.6l28.2-16.3
				c0.7-0.5,1.6-0.5,2.3-0.1c0.7,0.4,1.1,1.2,1.1,2.2v32.5c-0.1,1.9-1.1,3.6-2.7,4.6l-28.2,16.3
				C360.1,262.6,359.6,262.7,359.2,262.7z M389.4,208c-0.3,0-0.5,0.1-0.7,0.3l-28.2,16.3c-1.2,0.8-1.9,2-2,3.5v32.5
				c0,0.5,0.1,0.8,0.3,0.9c0.3,0.1,0.7,0,0.9-0.1l28.2-16.3c1.2-0.8,1.9-2,2-3.5v-32.5c0-0.4-0.1-0.7-0.4-0.9
				C389.5,208,389.5,208,389.4,208L389.4,208z"/>
			<path class="st4" d="M391.7,212.1l-6.3,3.6c-1.3,0.9-2.3,2.4-2.3,4v7.3c0,1.5,1.1,2.2,2.3,1.3l6.3-3.6c1.3-0.9,2.3-2.4,2.3-4
				v-7.3C393.9,211.9,393,211.3,391.7,212.1z"/>
			<path class="st9" d="M362.3,227.4l14.2-8.1c0.7-0.4,1.2-0.1,1.2,0.7v0.4c0,0.8-0.5,1.6-1.2,2l-14.2,8.1c-0.7,0.4-1.2,0.1-1.2-0.7
				v-0.4C361.2,228.6,361.6,227.8,362.3,227.4z"/>
			<path class="st9" d="M362.3,233.8l14.2-8.1c0.7-0.4,1.2-0.1,1.2,0.7v0.4c0,0.8-0.5,1.6-1.2,2l-14.2,8.1c-0.7,0.4-1.2,0-1.2-0.7
				v-0.5C361.2,235,361.6,234.2,362.3,233.8z"/>
			<path class="st9" d="M362.3,240l14.2-8.1c0.7-0.4,1.2-0.1,1.2,0.7v0.4c0,0.8-0.5,1.6-1.2,2l-14.2,8.1c-0.7,0.4-1.2,0.1-1.2-0.7
				V242C361.2,241.2,361.6,240.5,362.3,240z"/>
			<path class="st9" d="M362.3,246.3l23.5-13.5c0.7-0.4,1.2,0,1.2,0.7v0.4c0,0.8-0.5,1.6-1.2,2l-23.5,13.5c-0.7,0.4-1.2,0.1-1.2-0.7
				v-0.5C361.2,247.5,361.6,246.8,362.3,246.3z"/>
			<path class="st9" d="M362.3,252.6l23.5-13.5c0.7-0.4,1.2,0,1.2,0.7v0.4c0,0.8-0.5,1.6-1.2,2l-23.5,13.5c-0.7,0.4-1.2,0.1-1.2-0.7
				v-0.4C361.2,253.8,361.6,253,362.3,252.6z"/>
			<path class="st7" d="M408.8,241.7v2.2c0,1.1,0.7,1.5,1.6,0.9l27.2-15.6c0.9-0.7,1.6-1.6,1.6-2.8v-2.2c0-1.1-0.7-1.5-1.6-0.9
				l-27.2,15.6C409.4,239.6,408.8,240.6,408.8,241.7z"/>
			<path class="st6" d="M409.4,195.5l28.2-16.3c1.3-0.8,2.3-0.1,2.3,1.3V213c-0.1,1.6-0.9,3.1-2.3,4l-28.2,16.3
				c-1.3,0.8-2.3,0.1-2.3-1.3v-32.5C407.2,197.8,408.1,196.3,409.4,195.5z"/>
			<path class="st9" d="M408.4,234.3c-0.3,0-0.7-0.1-0.9-0.3c-0.7-0.4-1.1-1.2-1.1-2.2v-32.5c0.1-1.9,1.1-3.6,2.7-4.6l28.2-16.3
				c0.9-0.7,2.2-0.5,3,0.4c0.4,0.4,0.5,1.1,0.4,1.6V213c-0.1,1.9-1.1,3.6-2.7,4.6l-28.2,16.3C409.3,234.2,408.9,234.3,408.4,234.3z
				 M409.7,196c-1.2,0.8-1.9,2-2,3.5V232c0,0.4,0.1,0.7,0.4,0.9c0.3,0.1,0.7,0,0.9-0.1l28.2-16.3c1.2-0.8,1.9-2,2-3.5v-32.5
				c0.1-0.4,0-0.8-0.4-1.1c-0.3-0.1-0.7,0-0.9,0.3L409.7,196z"/>
			<path class="st4" d="M440.9,183.6l-6.3,3.6c-1.3,0.9-2.3,2.4-2.3,4v7.3c0,1.5,1.1,2.2,2.3,1.3l6.3-3.6c1.3-0.9,2.3-2.4,2.3-4V185
				C443.3,183.4,442.2,182.8,440.9,183.6z"/>
			<path class="st9" d="M411.6,199l14.2-8.1c0.7-0.4,1.2,0,1.2,0.7v0.4c0,0.8-0.5,1.6-1.2,2l-14.2,8.1c-0.7,0.4-1.2,0.1-1.2-0.7
				v-0.5C410.4,200.1,410.9,199.4,411.6,199z"/>
			<path class="st9" d="M411.6,205.3l14.2-8.1c0.7-0.4,1.2,0,1.2,0.7v0.4c0,0.8-0.5,1.6-1.2,2l-14.2,8.1c-0.7,0.4-1.2,0.1-1.2-0.7
				v-0.4C410.4,206.4,410.9,205.7,411.6,205.3z"/>
			<path class="st9" d="M411.6,211.5l14.2-8.1c0.7-0.4,1.2,0,1.2,0.7v0.4c0,0.8-0.5,1.6-1.2,2l-14.2,8.1c-0.7,0.4-1.2,0.1-1.2-0.7
				v-0.4C410.5,212.7,410.9,212.1,411.6,211.5z"/>
			<path class="st9" d="M411.6,217.9l23.5-13.5c0.7-0.4,1.2-0.1,1.2,0.7v0.4c0,0.8-0.5,1.6-1.2,2L411.6,221
				c-0.7,0.4-1.2,0.1-1.2-0.7v-0.4C410.5,219.1,410.9,218.3,411.6,217.9z"/>
			<path class="st9" d="M411.6,224.2l23.5-13.5c0.7-0.4,1.2-0.1,1.2,0.7v0.4c0,0.8-0.5,1.6-1.2,2l-23.5,13.5
				c-0.7,0.4-1.2,0.1-1.2-0.7v-0.5C410.4,225.4,410.9,224.6,411.6,224.2z"/>
			<path class="st7" d="M359.4,337.3v2.2c0,1.1,0.7,1.5,1.6,0.9l27.2-15.6c0.9-0.7,1.6-1.6,1.6-2.8v-2.2c0-1.1-0.7-1.5-1.6-0.9
				l-27.1,15.6C360.1,335.1,359.6,336.2,359.4,337.3z"/>
			<path class="st6" d="M360.1,291.1l28.2-16.3c1.3-0.8,2.3-0.1,2.3,1.3v32.5c-0.1,1.6-0.9,3.1-2.3,4l-28.2,16.3
				c-1.3,0.7-2.3,0.1-2.3-1.3v-32.5C357.8,293.5,358.8,291.9,360.1,291.1z"/>
			<path class="st9" d="M359.2,330c-0.3,0-0.7-0.1-0.9-0.3c-0.7-0.4-1.1-1.2-1.1-2.2v-32.5c0.1-1.9,1.1-3.6,2.7-4.6l28.2-16.3
				c0.9-0.7,2.3-0.5,3,0.4c0.3,0.4,0.5,0.9,0.4,1.5v32.5c-0.1,1.9-1.1,3.6-2.7,4.6l-28.2,16.3C360.1,329.9,359.6,330,359.2,330z
				 M389.4,275.1c-0.3,0-0.5,0.1-0.7,0.3l-28.2,16.3c-1.2,0.8-1.9,2-2,3.5v32.5c-0.1,0.4,0,0.8,0.4,1.1c0.3,0.1,0.7,0,0.9-0.3
				l28.2-16.3c1.2-0.8,1.9-2,2-3.5v-32.5c0-0.4-0.1-0.7-0.4-0.9C389.6,275.1,389.5,275.1,389.4,275.1L389.4,275.1z"/>
			<path class="st4" d="M391.7,279.2l-6.3,3.6c-1.3,0.9-2.3,2.4-2.3,4v7.3c0,1.5,1.1,2.2,2.3,1.3l6.3-3.6c1.3-0.9,2.3-2.4,2.3-4
				v-7.3C393.9,279.1,393,278.4,391.7,279.2z"/>
			<path class="st9" d="M362.3,294.6l14.2-8.1c0.7-0.4,1.2-0.1,1.2,0.7v0.4c0,0.8-0.5,1.6-1.2,2l-14.2,8.1c-0.7,0.4-1.2,0.1-1.2-0.7
				v-0.4C361.2,295.8,361.6,295,362.3,294.6z"/>
			<path class="st9" d="M362.3,300.9l14.2-8.1c0.7-0.4,1.2-0.1,1.2,0.7v0.4c0,0.8-0.5,1.6-1.2,2l-14.2,8.1c-0.7,0.4-1.2,0-1.2-0.7
				v-0.5C361.2,302,361.6,301.3,362.3,300.9z"/>
			<path class="st9" d="M362.3,307.2l14.2-8.1c0.7-0.4,1.2,0,1.2,0.7v0.4c0,0.8-0.5,1.6-1.2,2l-14.2,8.1c-0.7,0.4-1.2,0-1.2-0.7
				v-0.4C361.2,308.4,361.6,307.6,362.3,307.2z"/>
			<path class="st9" d="M362.3,313.4l23.5-13.5c0.7-0.4,1.2,0,1.2,0.7v0.5c0,0.8-0.5,1.6-1.2,2l-23.5,13.5c-0.7,0.4-1.2,0-1.2-0.7
				v-0.5C361.2,314.6,361.6,314,362.3,313.4z"/>
			<path class="st9" d="M362.3,319.8l23.5-13.5c0.7-0.4,1.2-0.1,1.2,0.7v0.4c0,0.8-0.5,1.6-1.2,2l-23.5,13.5c-0.7,0.4-1.2,0-1.2-0.7
				v-0.4C361.2,321,361.6,320.3,362.3,319.8z"/>
			<path class="st7" d="M408.8,308.8v2.2c0,1.1,0.7,1.5,1.6,0.9l27.2-15.6c0.9-0.7,1.6-1.6,1.6-2.8v-2.2c0-1.1-0.7-1.5-1.6-0.9
				L410.4,306C409.4,306.7,408.8,307.8,408.8,308.8z"/>
			<path class="st6" d="M409.4,262.6l28.2-16.3c1.3-0.8,2.3-0.1,2.3,1.3v32.5c-0.1,1.6-0.9,3.1-2.3,4l-28.2,16.3
				c-1.3,0.7-2.3,0.1-2.3-1.3v-32.5C407.2,265,408.1,263.4,409.4,262.6z"/>
			<path class="st9" d="M408.4,301.4c-0.3,0-0.7-0.1-0.9-0.3c-0.7-0.4-1.1-1.2-1.1-2v-32.5c0.1-1.9,1.1-3.6,2.7-4.6l28.2-16.3
				c0.9-0.7,2.2-0.5,3,0.4c0.4,0.4,0.5,1.1,0.4,1.6v32.5c-0.1,1.9-1.1,3.6-2.7,4.6l-28.2,16.3C409.3,301.4,408.9,301.6,408.4,301.4z
				 M409.7,263.2c-1.2,0.8-1.9,2-2,3.5v32.5c0,0.4,0.1,0.7,0.4,0.9c0.3,0.1,0.7,0,0.9-0.1l28.2-16.3c1.2-0.8,1.9-2,2-3.5v-32.5
				c0.1-0.4,0-0.8-0.4-1.1c-0.3-0.1-0.7,0-0.9,0.3L409.7,263.2z"/>
			<path class="st4" d="M440.9,250.7l-6.3,3.6c-1.3,0.9-2.3,2.4-2.3,4v7.3c0,1.5,1.1,2.2,2.3,1.3l6.3-3.6c1.3-0.9,2.3-2.4,2.3-4
				v-7.3C443.3,250.6,442.2,249.9,440.9,250.7z"/>
			<path class="st9" d="M411.6,266.1l14.2-8.1c0.7-0.4,1.2-0.1,1.2,0.7v0.4c0,0.8-0.5,1.6-1.2,2l-14.2,8.1c-0.7,0.4-1.2,0-1.2-0.7
				V268C410.5,267.3,410.9,266.5,411.6,266.1z"/>
			<path class="st9" d="M411.6,272.5l14.2-8.1c0.7-0.4,1.2,0,1.2,0.7v0.4c0,0.8-0.5,1.6-1.2,2l-14.2,8.1c-0.7,0.4-1.2,0.1-1.2-0.7
				v-0.4C410.4,273.7,410.9,272.9,411.6,272.5z"/>
			<path class="st9" d="M411.6,278.8l14.2-8.1c0.7-0.4,1.2-0.1,1.2,0.7v0.4c0,0.8-0.5,1.6-1.2,2l-14.2,8.1c-0.7,0.4-1.2,0.1-1.2-0.7
				v-0.5C410.5,279.9,410.9,279.2,411.6,278.8z"/>
			<path class="st9" d="M411.6,285l23.5-13.5c0.7-0.4,1.2-0.1,1.2,0.7v0.4c0,0.8-0.5,1.6-1.2,2l-23.5,13.5c-0.7,0.4-1.2,0.1-1.2-0.7
				V287C410.4,286.2,410.9,285.4,411.6,285z"/>
			<path class="st9" d="M411.6,291.3l23.5-13.5c0.7-0.4,1.2-0.1,1.2,0.7v0.4c0,0.8-0.5,1.6-1.2,2l-23.5,13.5c-0.7,0.4-1.2,0-1.2-0.7
				v-0.5C410.5,292.5,410.9,291.7,411.6,291.3z"/>
			<path class="st7" d="M258.8,395.5v2.2c0,1.1,0.7,1.5,1.6,0.9l27.1-15.6c0.9-0.7,1.6-1.6,1.6-2.8V378c0-1.1-0.7-1.5-1.6-0.9
				l-27.1,15.6C259.4,393.4,258.9,394.4,258.8,395.5z"/>
			<path class="st6" d="M259.4,349.1l28.2-16.3c1.3-0.7,2.3-0.1,2.3,1.3v32.5c-0.1,1.6-0.9,3.1-2.3,4L259.4,387
				c-1.3,0.7-2.3,0.1-2.3-1.3v-32.5C257.1,351.6,258.1,350.1,259.4,349.1z"/>
			<path class="st9" d="M258.3,388.1c-0.3,0-0.7-0.1-0.9-0.3c-0.7-0.4-1.1-1.2-1.1-2v-32.5c0.1-1.9,1.1-3.6,2.7-4.6l28.2-16.3
				c0.9-0.7,2.2-0.5,3,0.4c0.4,0.4,0.5,1.1,0.4,1.6v32.5c-0.1,1.9-1.1,3.6-2.7,4.6l-28.2,16.3C259.3,388,258.9,388.1,258.3,388.1z
				 M259.4,349.1l0.3,0.5c-1.2,0.8-1.9,2-2,3.5v32.5c-0.1,0.4,0,0.8,0.4,1.1c0.3,0.1,0.7,0,0.9-0.3l28.2-16.3c1.2-0.8,1.9-2,2-3.5
				v-32.5c0.1-0.4,0-0.8-0.4-1.1c-0.3-0.1-0.7,0-0.9,0.3l-28.2,16.3L259.4,349.1z"/>
			<path class="st4" d="M291,337.3l-6.3,3.6c-1.3,0.9-2.3,2.4-2.3,4v7.3c0,1.5,1.1,2,2.3,1.3l6.3-3.6c1.3-0.9,2.3-2.4,2.3-4v-7.3
				C293.3,337.1,292.2,336.6,291,337.3z"/>
			<path class="st9" d="M261.6,352.8l14.2-8.1c0.7-0.4,1.2,0,1.2,0.7v0.4c0,0.8-0.5,1.6-1.2,2l-14.2,8.1c-0.7,0.4-1.2,0-1.2-0.7
				v-0.4C260.5,353.9,260.9,353.2,261.6,352.8z"/>
			<path class="st9" d="M261.6,359l14.2-8.1c0.7-0.4,1.2,0,1.2,0.7v0.4c0,0.8-0.5,1.6-1.2,2l-14.2,8.1c-0.7,0.4-1.2,0-1.2-0.7v-0.5
				C260.5,360.2,260.9,359.5,261.6,359z"/>
			<path class="st9" d="M261.6,365.3l14.2-8.1c0.7-0.4,1.2,0,1.2,0.7v0.4c0,0.8-0.5,1.6-1.2,2l-14.2,8.1c-0.7,0.4-1.2,0-1.2-0.7
				v-0.5C260.5,366.5,260.9,365.9,261.6,365.3z"/>
			<path class="st9" d="M261.6,371.7l23.5-13.5c0.7-0.4,1.2,0,1.2,0.7v0.4c0,0.8-0.5,1.6-1.2,2l-23.5,13.5c-0.7,0.4-1.2,0.1-1.2-0.7
				v-0.4C260.5,372.9,260.9,372.1,261.6,371.7z"/>
			<path class="st9" d="M261.6,378l23.5-13.5c0.7-0.4,1.2,0,1.2,0.7v0.4c0,0.8-0.5,1.6-1.2,2l-23.5,13.5c-0.7,0.4-1.2,0-1.2-0.7
				v-0.5C260.5,379.2,260.9,378.4,261.6,378z"/>
			<path class="st7" d="M308.1,367.1v2.2c0,1.1,0.7,1.5,1.6,0.9l27.2-15.6c0.9-0.7,1.6-1.6,1.6-2.8v-2.2c0-1.1-0.7-1.5-1.6-0.9
				l-27.2,15.6C308.8,364.9,308.1,365.9,308.1,367.1z"/>
			<path class="st6" d="M308.8,320.7l28.2-16.3c1.3-0.7,2.3-0.1,2.3,1.3v32.5c-0.1,1.6-0.9,3.1-2.3,4l-28.2,16.4
				c-1.3,0.8-2.3,0.1-2.3-1.3v-32.5C306.5,323.1,307.4,321.6,308.8,320.7z"/>
			<path class="st9" d="M307.7,359.7c-0.3,0-0.7-0.1-0.9-0.3c-0.7-0.4-1.1-1.2-1.1-2.2v-32.5c0.1-1.9,1.1-3.6,2.7-4.6l28.2-16.3
				c0.9-0.7,2.2-0.5,3,0.4c0.4,0.4,0.5,0.9,0.4,1.6v32.5c-0.1,1.9-1.1,3.6-2.7,4.6L309,359.3C308.6,359.5,308.2,359.7,307.7,359.7z
				 M337.9,304.8c-0.3,0-0.5,0.1-0.7,0.3L309,321.4c-1.2,0.8-1.9,2-2,3.5v32.5c0,0.4,0.1,0.7,0.4,0.9c0.3,0.1,0.7,0,0.9-0.1
				l28.2-16.3c1.2-0.8,1.9-2,2-3.5v-32.6c0-0.4-0.1-0.7-0.4-0.9C338.1,304.9,338,304.8,337.9,304.8L337.9,304.8z"/>
			<path class="st4" d="M340.2,308.8l-6.3,3.6c-1.3,0.9-2.3,2.4-2.3,4v7.3c0,1.5,1.1,2.2,2.3,1.3l6.3-3.6c1.3-0.9,2.3-2.4,2.3-4
				v-7.3C342.6,308.7,341.5,308.2,340.2,308.8z"/>
			<path class="st9" d="M310.9,324.2l14.2-8.1c0.7-0.4,1.2,0,1.2,0.7v0.4c0,0.8-0.5,1.6-1.2,2l-14.2,8.1c-0.7,0.4-1.2,0-1.2-0.7
				v-0.4C309.7,325.4,310.1,324.7,310.9,324.2z"/>
			<path class="st9" d="M310.9,330.5l14.2-8.1c0.7-0.4,1.2,0,1.2,0.7v0.4c0,0.8-0.5,1.6-1.2,2l-14.2,8.1c-0.7,0.4-1.2,0-1.2-0.7
				v-0.5C309.7,331.8,310.1,331.1,310.9,330.5z"/>
			<path class="st9" d="M310.9,336.9l14.2-8.1c0.7-0.4,1.2,0,1.2,0.7v0.4c0,0.8-0.5,1.6-1.2,2l-14.2,8.1c-0.7,0.4-1.2,0.1-1.2-0.7
				v-0.4C309.7,338.1,310.2,337.3,310.9,336.9z"/>
			<path class="st9" d="M310.9,343.2l23.5-13.5c0.7-0.4,1.2,0,1.2,0.7v0.4c0,0.8-0.5,1.6-1.2,2l-23.5,13.5c-0.7,0.4-1.2,0-1.2-0.7
				v-0.5C309.7,344.4,310.2,343.6,310.9,343.2z"/>
			<path class="st9" d="M310.9,349.5l23.5-13.5c0.7-0.4,1.2,0,1.2,0.7v0.4c0,0.8-0.5,1.6-1.2,2l-23.5,13.5c-0.7,0.4-1.2,0-1.2-0.7
				v-0.4C309.7,350.8,310.1,350,310.9,349.5z"/>
			<polygon class="st4" points="180.4,221.5 175.1,218.3 175.1,243.6 180.4,246.8 			"/>
			<polygon class="st10" points="180.4,221.5 175.1,218.3 175.1,243.6 180.4,246.8 			"/>
		</g>
	</g>
</g>
</svg>
