<?xml version="1.0" encoding="utf-8"?>
<!-- Generator: Adobe Illustrator 25.0.0, SVG Export Plug-In . SVG Version: 6.00 Build 0)  -->
<svg version="1.1" id="Layer_1" xmlns="http://www.w3.org/2000/svg" xmlns:xlink="http://www.w3.org/1999/xlink" x="0px" y="0px"
	 viewBox="0 0 500 500" style="enable-background:new 0 0 500 500;" xml:space="preserve">
<style type="text/css">
	.st0{opacity:0.2;}
	.st1{fill:#37474F;}
	.st2{fill:#263238;}
	.st3{fill:#455A64;}
	.st4{fill:#03A9F4;}
	.st5{opacity:0.4;enable-background:new    ;}
	.st6{opacity:0.5;enable-background:new    ;}
	.st7{opacity:0.3;enable-background:new    ;}
	.st8{opacity:0.25;enable-background:new    ;}
	.st9{opacity:0.15;enable-background:new    ;}
	.st10{fill:#FAFAFA;}
</style>
<g>
	<g id="freepik--Shadows--inject-5" class="st0">
		<polygon id="freepik--Shadow--inject-5" points="135.9,396.4 151.9,387.3 7.6,304 57.7,275.1 202,358.3 214.5,351.1 218.8,398.9 
					"/>
		<polygon id="freepik--shadow--inject-5" points="407.1,308.3 423,299.1 215.7,179.2 266.3,150 473.6,269.9 486.2,262.6 
			490.5,310.8 		"/>
		<polygon id="freepik--shadow--inject-5_1_" points="337.7,408.7 37.3,235.8 139.7,176.9 440,349.8 		"/>
	</g>
	<g id="freepik--Arrows--inject-5">
		<g id="freepik--Arrow--inject-5">
			<polygon class="st1" points="219.5,291.8 210.6,297 57.8,208.7 14.8,233.5 14.8,241.5 160.8,325.7 158.8,326.8 158.8,334.8 
				222.8,336.7 222.8,328.8 			"/>
			<polygon class="st2" points="167.6,321.7 160.8,325.7 14.8,241.5 14.8,233.5 			"/>
			<polygon class="st3" points="222.8,328.8 219.5,291.8 210.6,297 57.8,208.7 14.8,233.5 167.6,321.7 158.8,326.8 			"/>
		</g>
		<g id="freepik--arrow--inject-5">
			<polygon class="st4" points="488.9,201.3 479.9,206.5 280.6,91.3 237.2,116.4 237.2,124.5 429.5,235.6 427.5,236.8 427.5,244.8 
				492.4,246.8 492.4,238.7 			"/>
			<polygon class="st5" points="492.4,238.7 492.4,246.8 427.5,244.8 427.5,236.8 			"/>
			<polygon class="st6" points="436.5,231.6 429.5,235.6 237.2,124.5 237.2,116.4 			"/>
			<polygon class="st4" points="492.4,238.7 488.9,201.3 479.9,206.5 280.6,91.3 237.2,116.4 436.5,231.6 427.5,236.8 			"/>
			<polygon class="st7" points="492.4,238.7 488.9,201.3 479.9,206.5 280.6,91.3 237.2,116.4 436.5,231.6 427.5,236.8 			"/>
		</g>
	</g>
	<g id="freepik--Road--inject-5">
		<g id="freepik--arrow--inject-5_1_">
			<polygon class="st4" points="35.9,160.7 35.9,178 340.1,353.3 340.1,336.1 			"/>
			<polygon class="st8" points="35.9,160.7 35.9,178 340.1,353.3 340.1,336.1 			"/>
			<polygon class="st4" points="445.4,275.1 141.2,99.7 35.9,160.7 340.1,336.1 			"/>
			<polygon class="st4" points="340.1,336.1 340.1,353.3 445.4,292.4 445.4,275.1 			"/>
			<polygon class="st9" points="340.1,336.1 340.1,353.3 445.4,292.4 445.4,275.1 			"/>
			<g id="freepik--Lines--inject-5">
				<path class="st10" d="M107.7,136.4l25.7,14.8c0.6,0.3,0.6,0.9,0,1.2l-3.8,2.2c-0.7,0.3-1.4,0.3-2.1,0l-25.8-14.8
					c-0.6-0.3-0.6-0.9,0-1.2l3.8-2.2C106.3,136.1,107.1,136.1,107.7,136.4z"/>
				<path class="st10" d="M167.3,170.9l25.7,14.8c0.6,0.3,0.6,0.9,0,1.2l-3.8,2.2c-0.7,0.3-1.4,0.3-2.1,0l-25.7-14.8
					c-0.6-0.3-0.6-0.9,0-1.2l3.8-2.2C165.9,170.5,166.8,170.5,167.3,170.9z"/>
				<path class="st10" d="M227.1,205.3l25.7,14.8c0.3,0.1,0.6,0.4,0.3,0.8c-0.1,0.2-0.2,0.3-0.3,0.3l-3.8,2.2
					c-0.7,0.3-1.4,0.3-2.1,0l-25.7-14.8c-0.3-0.1-0.6-0.4-0.4-0.8c0.1-0.2,0.2-0.3,0.4-0.4l3.8-2.2
					C225.6,204.9,226.4,204.9,227.1,205.3z"/>
				<path class="st10" d="M286.8,239.8l25.7,14.8c0.6,0.3,0.6,0.9,0,1.2l-3.9,2.2c-0.7,0.3-1.4,0.3-2.1,0l-25.7-14.8
					c-0.6-0.3-0.6-0.9,0-1.2l3.9-2.2C285.3,239.5,286.1,239.5,286.8,239.8z"/>
				<path class="st10" d="M346.5,274.2l25.7,14.8c0.6,0.3,0.6,0.9,0,1.2l-3.9,2.2c-0.7,0.3-1.4,0.3-2.1,0l-25.7-14.8
					c-0.3-0.1-0.6-0.4-0.4-0.8c0.1-0.2,0.2-0.3,0.4-0.4l3.9-2.2C345,273.9,345.8,273.9,346.5,274.2z"/>
			</g>
		</g>
	</g>
</g>
</svg>
