<?xml version="1.0" encoding="utf-8"?>
<!-- Generator: Adobe Illustrator 25.0.0, SVG Export Plug-In . SVG Version: 6.00 Build 0)  -->
<svg version="1.1" id="Layer_1" xmlns="http://www.w3.org/2000/svg" xmlns:xlink="http://www.w3.org/1999/xlink" x="0px" y="0px"
	 viewBox="0 0 500 500" style="enable-background:new 0 0 500 500;" xml:space="preserve">
<style type="text/css">
	.st0{opacity:0.2;enable-background:new    ;}
	.st1{fill:#03A9F4;}
	.st2{opacity:0.5;fill:#FFFFFF;enable-background:new    ;}
	.st3{opacity:0.65;fill:#FFFFFF;enable-background:new    ;}
	.st4{opacity:0.8;fill:#FFFFFF;enable-background:new    ;}
	.st5{fill:#FFFFFF;}
	.st6{fill:#455A64;}
	.st7{fill:#37474F;}
	.st8{fill:#263238;}
	.st9{fill:#CA2495;}
	.st10{fill:#E535AB;}
	.st11{opacity:0.5;}
	.st12{opacity:0.3;fill:#03A9F4;enable-background:new    ;}
	.st13{opacity:0.2769;fill:#03A9F4;enable-background:new    ;}
	.st14{opacity:0.2538;fill:#03A9F4;enable-background:new    ;}
	.st15{opacity:0.2308;fill:#03A9F4;enable-background:new    ;}
	.st16{opacity:0.2077;fill:#03A9F4;enable-background:new    ;}
	.st17{opacity:0.1846;fill:#03A9F4;enable-background:new    ;}
	.st18{opacity:0.1615;fill:#03A9F4;enable-background:new    ;}
	.st19{opacity:0.1385;fill:#03A9F4;enable-background:new    ;}
	.st20{opacity:0.1154;fill:#03A9F4;enable-background:new    ;}
	.st21{opacity:9.230800e-02;fill:#03A9F4;enable-background:new    ;}
	.st22{opacity:6.923100e-02;fill:#03A9F4;enable-background:new    ;}
	.st23{opacity:4.615400e-02;fill:#03A9F4;enable-background:new    ;}
	.st24{opacity:2.307700e-02;fill:#03A9F4;enable-background:new    ;}
	.st25{fill:#03A9F4;fill-opacity:0;}
	.st26{opacity:0.7;}
	.st27{opacity:0.5;fill:#03A9F4;enable-background:new    ;}
	.st28{opacity:0.4615;fill:#03A9F4;enable-background:new    ;}
	.st29{opacity:0.4231;fill:#03A9F4;enable-background:new    ;}
	.st30{opacity:0.3846;fill:#03A9F4;enable-background:new    ;}
	.st31{opacity:0.3462;fill:#03A9F4;enable-background:new    ;}
	.st32{opacity:0.3077;fill:#03A9F4;enable-background:new    ;}
	.st33{opacity:0.2692;fill:#03A9F4;enable-background:new    ;}
	.st34{opacity:0.1923;fill:#03A9F4;enable-background:new    ;}
	.st35{opacity:0.1538;fill:#03A9F4;enable-background:new    ;}
	.st36{opacity:7.692300e-02;fill:#03A9F4;enable-background:new    ;}
	.st37{opacity:3.846200e-02;fill:#03A9F4;enable-background:new    ;}
</style>
<g id="freepik--Stage--inject-8">
	<g id="freepik--stage--inject-8">
		<path class="st0" d="M472.4,367.8L259.9,490.3c-6.2,3.2-13.6,3.2-19.9,0L27.5,367.8c-2.8-1.5-4.2-3.7-4.2-5.7
			c0-1.7,0.9-3.2,2.2-4.3c0.6-0.6,1.2-1.1,2-1.4L240,233.8c6.2-3.2,13.6-3.2,19.9,0l212.5,122.5C478,359.4,478,364.5,472.4,367.8z"
			/>
		<path class="st1" d="M250.1,433.9v41.3c-3.4,0-6.8-0.8-9.9-2.3L27.7,350.2c-2.8-1.5-4.2-3.7-4.2-5.7v-35.8c0-1.7,0.9-3.2,2.2-4.3
			l30.7,17.7L250.1,433.9z"/>
		<path class="st2" d="M250.1,433.9v41.3c-3.4,0-6.8-0.8-9.9-2.3L27.7,350.2c-2.8-1.5-4.2-3.7-4.2-5.7v-35.8c0-1.7,0.9-3.2,2.2-4.3
			l30.7,17.7L250.1,433.9z"/>
		<path class="st1" d="M250.1,433.9v41.3c3.4,0.2,6.8-0.8,9.9-2.3l212.5-122.7c2.8-1.5,4.2-3.7,4.2-5.7v-35.8c0-1.7-0.9-3.2-2.2-4.3
			l-30.8,17.7L250.1,433.9z"/>
		<path class="st3" d="M250.1,433.9v41.3c3.4,0.2,6.8-0.8,9.9-2.3l212.5-122.7c2.8-1.5,4.2-3.7,4.2-5.7v-35.8c0-1.7-0.9-3.2-2.2-4.3
			l-30.8,17.7L250.1,433.9z"/>
		<path class="st1" d="M472.4,314.4L259.9,437.1c-6.2,3.1-13.6,3.1-19.9,0L27.5,314.6c-2.8-1.5-4.2-3.5-4.2-5.7
			c0-1.7,0.9-3.2,2.2-4.3c0.6-0.6,1.2-1.1,2-1.4L240,180.7c6.2-3.2,13.6-3.2,19.9,0l212.5,122.5C478,306.1,478,311.4,472.4,314.4z"
			/>
		<path class="st4" d="M472.4,314.4L259.9,437.1c-6.2,3.1-13.6,3.1-19.9,0L27.5,314.6c-2.8-1.5-4.2-3.5-4.2-5.7
			c0-1.7,0.9-3.2,2.2-4.3c0.6-0.6,1.2-1.1,2-1.4L240,180.7c6.2-3.2,13.6-3.2,19.9,0l212.5,122.5C478,306.1,478,311.4,472.4,314.4z"
			/>
		<path class="st5" d="M250.1,180.5c3.1,0,6,0.6,8.6,2L471.2,305c1.8,1.1,2.9,2.3,2.9,3.7c0,1.4-1.1,2.5-2.9,3.5L258.7,435
			c-5.4,2.8-11.9,2.8-17.4,0L28.8,312.3c-1.8-1.1-2.9-2.3-2.9-3.5c0.2-0.9,0.6-1.8,1.4-2.5c0.5-0.5,0.9-0.8,1.5-1.1l212.5-122.5
			C244,181.1,247.1,180.5,250.1,180.5 M250.1,178c-3.4,0-6.8,0.8-9.9,2.3L27.7,302.9c-0.8,0.3-1.4,0.9-2,1.4
			c-1.4,1.1-2.2,2.6-2.2,4.3c0,2.2,1.4,4.2,4.2,5.7l212.5,122.5c6.2,3.1,13.6,3.1,19.9,0l212.5-122.7c5.4-3.1,5.4-8.3,0-11.4
			L260.1,180.2C257,178.8,253.4,178,250.1,178L250.1,178z"/>
		<path class="st6" d="M243.4,205.3L70.8,304.9c-3.7,2.2-3.7,5.5,0,7.7l172.6,99.6c4.2,2.2,9.1,2.2,13.3,0l172.8-99.6
			c3.7-2.2,3.7-5.5,0-7.6l-172.8-99.7C252.5,203.2,247.6,203.2,243.4,205.3z"/>
		<path class="st7" d="M429.3,304.9l-172.6-99.6c-2-1.1-4.3-1.5-6.6-1.5v6.8l178.2,102.6l1.1-0.6C433,310.4,433,307,429.3,304.9z"/>
		<path class="st8" d="M250.1,203.8c-2.3,0-4.6,0.5-6.6,1.5L70.8,304.9c-3.7,2.2-3.7,5.5,0,7.7l1.1,0.6l178.2-102.6V203.8z"/>
	</g>
	<g>
		<path class="st9" d="M285.5,48.9l61,51.6c10-7.9,26.8-3.9,37.4,9.1c1.8,2.2,3.4,4.6,4.6,7.1c7.2,14.6,2.9,29.7-9.9,33.6
			c-2.2,0.6-4.5,0.9-6.9,0.9v70.4c14.2,7.2,23,23.7,19.6,37c-0.6,2.3-1.5,4.5-2.9,6.5c-7.4,10.6-23.6,10.6-36.2,0
			c-2.5-2-4.6-4.5-6.5-7.1L285,276.8c4.6,15.1-2.9,28-16.8,29c-2.6,0.2-5.4-0.2-8.3-0.9c-14.6-3.9-26.5-19-26.5-33.4
			c0-2.5,0.3-4.9,1.1-7.2l-61-51.6c-10,7.9-26.8,3.9-37.4-9.1c-10.6-12.9-10.9-29.7-0.9-37.6c3.5-2.8,8-4.2,12.9-4V91.4
			c-14.2-7.2-23-23.9-19.6-37.1c0.6-2.3,1.5-4.5,2.8-6.3c7.4-10.6,23.6-10.6,36.2,0c2.2,1.8,4.2,4,6,6.3l61.2-19
			c-4.2-15.1,3.9-27.7,17.9-28c2.5,0,4.9,0.3,7.6,0.9c14.6,3.9,26.5,19,26.5,33.4C286.6,44.1,286.1,46.7,285.5,48.9z M279,58.2
			c-0.3,0.2-0.5,0.3-0.8,0.5l80,159.8c0.3,0,0.6,0,1.1,0v-70.6c-14.2-7.2-22.8-23.9-19.3-37.1c0-0.3,0.2-0.6,0.3-0.8
			C340.2,109.8,279,58.2,279,58.2z M241.7,48.8l-0.8-0.9l-61.2,19c4,15.1-4,27.6-18,27.9c-0.3,0-0.6,0-0.9,0v70.6l1.1,0.6
			L241.7,48.8L241.7,48.8z M267.5,62c-4.8,0.2-9.9-1.2-14.8-4l-79.8,117c3.7,4.5,6.2,9.7,7.4,14.8l159.7,42.8
			c1.2-4.6,3.9-8.3,7.4-10.9C347.3,221.7,267.5,62,267.5,62z M279.6,265.9l60.7-18.8c-0.2-0.6-0.3-1.2-0.5-1.8l-159.8-42.8l-0.3,0.9
			l61,51.6c4.8-3.7,11.6-4.9,19.1-2.9C267.8,254.2,274.7,259.3,279.6,265.9z"/>
		<path class="st9" d="M277.5,52.8l61,51.6c10-7.9,26.8-3.9,37.4,9.1c1.8,2.2,3.4,4.6,4.6,7.1c7.2,14.6,2.9,29.7-9.9,33.6
			c-2.2,0.6-4.5,0.9-6.9,0.9v70.4c14.2,7.2,23,23.7,19.6,37c-0.6,2.3-1.5,4.5-2.9,6.5c-7.4,10.6-23.6,10.6-36.2,0
			c-2.5-2-4.6-4.5-6.5-7.1L277,280.7c4.6,15.1-2.9,28-16.8,29c-2.6,0.2-5.4-0.2-8.3-0.9c-14.6-3.9-26.5-19-26.5-33.4
			c0-2.5,0.3-4.9,1.1-7.2l-61-51.6c-10,7.9-26.8,3.9-37.4-9.1c-10.6-12.9-10.9-29.7-0.9-37.6c3.5-2.8,8-4.2,12.9-4V95.3
			c-14.2-7.2-23-23.9-19.6-37.1c0.6-2.3,1.5-4.5,2.8-6.3c7.4-10.6,23.6-10.6,36.2,0c2.2,1.8,4.2,4,6,6.3l61-19
			c-4.2-15.1,3.9-27.7,17.9-28c2.5,0,4.9,0.3,7.6,0.9c14.6,3.9,26.5,19,26.5,33.4C278.6,48,278.3,50.4,277.5,52.8z M271.2,61.9
			c-0.3,0.2-0.5,0.3-0.8,0.5l79.8,160c0.3,0,0.6,0,1.1,0v-70.6c-14.2-7.2-22.8-23.9-19.3-37.1c0-0.3,0.2-0.6,0.3-0.8
			C332.2,113.6,271.2,61.9,271.2,61.9z M233.9,52.6l-0.8-0.9l-61.2,19c4,15.1-4,27.6-18,27.9c-0.3,0-0.6,0-0.9,0v70.6l1.1,0.6
			L233.9,52.6L233.9,52.6z M259.5,65.9c-4.8,0.2-9.9-1.2-14.8-4l-79.8,117c3.7,4.5,6.2,9.7,7.4,14.8l159.7,42.8
			c1.2-4.6,3.9-8.3,7.4-10.9C339.4,225.5,259.5,65.9,259.5,65.9z M271.6,269.7l60.7-18.8c-0.2-0.6-0.3-1.2-0.5-1.8l-159.8-42.8
			l-0.3,0.9l61,51.6c4.8-3.7,11.6-4.9,19.1-2.9C259.9,258,266.9,263.1,271.6,269.7z"/>
		<path class="st9" d="M275.5,51.8l61,51.6c10-7.9,26.8-3.9,37.4,9.1c1.8,2.2,3.4,4.6,4.6,7.1c7.2,14.6,2.9,29.7-9.9,33.6
			c-2.2,0.6-4.5,0.9-6.9,0.9v70.4c14.2,7.2,23,23.7,19.6,37c-0.6,2.3-1.5,4.5-2.9,6.5c-7.4,10.6-23.6,10.6-36.2,0
			c-2.5-2-4.6-4.5-6.5-7.1L275,279.8c4.6,15.1-2.9,28-16.8,29c-2.6,0.2-5.4-0.2-8.3-0.9c-14.6-3.9-26.5-19-26.5-33.4
			c0-2.5,0.3-4.9,1.1-7.2l-61-51.6c-10,7.9-26.8,3.9-37.4-9.1c-10.6-12.9-10.9-29.7-0.9-37.6c3.5-2.8,8-4.2,12.9-4V94.4
			c-14.2-7.2-23-23.9-19.6-37.1c0.6-2.3,1.5-4.5,2.8-6.3c7.4-10.6,23.6-10.6,36.2,0c2.2,1.8,4.2,4,6,6.3l61-19
			c-4.2-15.1,3.9-27.7,17.9-28c2.5,0,4.9,0.3,7.6,0.9c14.6,3.9,26.5,19,26.5,33.4C276.6,47.1,276.3,49.5,275.5,51.8z M269.2,60.9
			c-0.3,0.2-0.5,0.3-0.8,0.5l80,159.8c0.3,0,0.6,0,1.1,0v-70.6c-14.2-7.2-22.8-23.9-19.3-37.1c0-0.3,0.2-0.6,0.3-0.8
			C330.3,112.7,269.2,60.9,269.2,60.9z M231.9,51.7l-0.8-0.9l-61.2,18.8c4,15.1-4,27.6-18,27.9c-0.3,0-0.6,0-0.9,0V168l1.1,0.6
			L231.9,51.7L231.9,51.7z M257.5,64.8c-4.8,0.2-9.9-1.2-14.8-4l-79.8,117c3.7,4.5,6.2,9.7,7.4,14.8l159.7,42.8
			c1.2-4.6,3.9-8.3,7.4-10.9C337.4,224.6,257.5,64.8,257.5,64.8z M269.6,268.8l60.7-18.8c-0.2-0.6-0.3-1.2-0.5-1.8l-159.7-42.8
			l-0.3,0.9l61,51.6c4.8-3.7,11.6-4.9,19.1-2.9C257.9,257,264.9,262.2,269.6,268.8z"/>
		<path class="st10" d="M265.5,55.7l61,51.6c10-7.9,26.8-3.9,37.4,9.1c1.8,2.2,3.4,4.6,4.6,7.1c7.2,14.6,2.9,29.7-9.9,33.6
			c-2.2,0.6-4.5,0.9-6.9,0.9v70.4c14.2,7.2,23,23.7,19.6,37c-0.6,2.3-1.5,4.5-2.9,6.5c-7.4,10.6-23.6,10.6-36.2,0
			c-2.5-2-4.6-4.5-6.5-7.1L265,283.6c4.6,15.1-2.9,28-16.8,29c-2.6,0.2-5.4-0.2-8.3-0.9c-14.6-3.9-26.5-19-26.5-33.4
			c0-2.5,0.3-4.9,1.1-7.2l-61-51.6c-10,7.9-26.8,3.9-37.4-9.1c-10.6-12.9-10.9-29.7-0.9-37.6c3.5-2.8,8-4.2,12.9-4V98.2
			c-14.2-7.2-23-23.9-19.6-37.1c0.6-2.3,1.5-4.5,2.8-6.3c7.4-10.6,23.6-10.6,36.2,0c2.2,1.8,4.2,4,6,6.3L214.8,42
			c-4.2-15.1,3.9-27.7,17.9-28c2.5,0,4.9,0.3,7.6,0.9c14.6,3.9,26.5,19,26.5,33.4C266.7,50.9,266.2,53.4,265.5,55.7z M259.2,64.8
			c-0.3,0.2-0.5,0.3-0.8,0.5l80,159.8c0.3,0,0.6,0,1.1,0v-70.6c-14.2-7.2-22.8-23.9-19.3-37.1c0-0.3,0.2-0.6,0.3-0.8
			C320.3,116.6,259.2,64.8,259.2,64.8z M221.9,55.5l-0.8-0.9l-61.2,19c4,15.1-4,27.6-18,27.9c-0.3,0-0.6,0-0.9,0V172l1.1,0.6
			L221.9,55.5L221.9,55.5z M247.6,68.6c-4.8,0.2-9.9-1.2-14.8-4L153,181.7c3.7,4.5,6.2,9.7,7.4,14.8L320,239.4
			c1.2-4.6,3.9-8.3,7.4-10.9C327.4,228.4,247.6,68.6,247.6,68.6z M259.8,272.7l60.7-18.8c-0.2-0.6-0.3-1.2-0.5-1.8l-159.8-42.8
			l-0.3,0.9l61,51.6c4.8-3.7,11.6-4.9,19.1-2.9C247.9,260.8,254.8,266,259.8,272.7z"/>
	</g>
	<g id="freepik--Light--inject-8">
		<g class="st11">
			<path class="st12" d="M261.9,386.9c-3.7,2.2-7.9,3.1-12.2,2.9c-0.2,0,0,0,0,0l0,0v23.9c2.9,0,5.7-0.9,8.2-2.5l169.4-97.6
				c3.1-1.7,4.6-3.2,4.6-5.4v-19.4L261.9,386.9z"/>
			<path class="st13" d="M261.9,365.4c-3.7,2.2-7.9,3.1-12.2,2.9l0,0v23.9c2.9,0,5.7-0.9,8.2-2.5l169.4-97.6
				c3.1-1.7,4.6-3.2,4.6-5.4v-19.4L261.9,365.4z"/>
			<path class="st14" d="M261.9,344c-3.7,2.2-7.9,3.1-12.2,2.9c-0.2,0,0,0,0,0l0,0v23.9c2.9,0,5.7-0.9,8.2-2.5l169.4-97.6
				c3.1-1.7,4.6-3.2,4.6-5.4V246L261.9,344z"/>
			<path class="st15" d="M261.9,322.6c-3.7,2.2-7.9,3.1-12.2,2.9l0,0v23.9c2.9,0,5.7-0.8,8.2-2.5l169.4-97.6
				c3.1-1.7,4.6-3.2,4.6-5.4v-19.4L261.9,322.6z"/>
			<path class="st16" d="M261.9,301.2c-3.7,2.2-7.9,3.1-12.2,2.9c-0.2,0,0,0,0,0l0,0V328c2.9,0,5.7-0.9,8.2-2.5l169.4-97.7
				c3.1-1.7,4.6-3.2,4.6-5.4V203L261.9,301.2z"/>
			<path class="st17" d="M261.9,279.8c-3.7,2.2-7.9,3.1-12.2,2.8l0,0v24c2.9,0,5.7-0.8,8.2-2.5l169.4-97.7c3.1-1.7,4.6-3.2,4.6-5.4
				v-19.4L261.9,279.8z"/>
			<path class="st18" d="M261.9,258.3c-3.7,2.2-7.9,3.1-12.2,2.9c-0.2,0,0,0,0,0l0,0v24c2.9,0,5.7-0.9,8.2-2.5L427.3,185
				c3.1-1.7,4.6-3.2,4.6-5.4v-19.4L261.9,258.3z"/>
			<path class="st19" d="M261.9,236.9c-3.7,2.2-7.9,3.1-12.2,2.8l0,0v24c2.9,0,5.7-0.8,8.2-2.5l169.4-97.7c3.1-1.7,4.6-3.2,4.6-5.4
				v-19.4L261.9,236.9z"/>
			<path class="st20" d="M261.9,215.5c-3.7,2.2-7.9,3.1-12.2,2.9c-0.2,0,0,0,0,0l0,0v23.9c2.9,0,5.7-0.9,8.2-2.5l169.4-97.7
				c3.1-1.7,4.6-3.2,4.6-5.4v-19.3L261.9,215.5z"/>
			<path class="st21" d="M261.9,194.1c-3.7,2.2-7.9,3.1-12.2,2.8c-0.2,0,0,0,0,0l0,0v24c2.9,0,5.7-0.8,8.2-2.5l169.4-97.7
				c3.1-1.7,4.6-3.2,4.6-5.4V95.9L261.9,194.1z"/>
			<path class="st22" d="M261.9,172.7c-3.7,2.2-7.9,3.1-12.2,2.9c-0.2,0,0,0,0,0l0,0v24c2.9,0,5.7-0.9,8.2-2.5l169.4-97.9
				c3.1-1.7,4.6-3.2,4.6-5.4V74.5L261.9,172.7z"/>
			<path class="st23" d="M261.9,151.2c-3.7,2.2-7.9,3.1-12.2,2.9c-0.2,0,0,0,0,0l0,0v24c2.9,0,5.7-0.9,8.2-2.5l169.4-97.9
				c3.1-1.7,4.6-3.2,4.6-5.4V53.1L261.9,151.2z"/>
			<path class="st24" d="M261.9,129.8c-3.7,2.2-7.9,3.1-12.2,2.9l0,0v24c2.9,0,5.7-0.9,8.2-2.5l169.4-97.9c3.1-1.7,4.6-3.2,4.6-5.4
				V31.6L261.9,129.8z"/>
			<path class="st25" d="M261.9,108.4c-3.7,2.2-7.9,3.1-12.2,2.8c-0.2,0,0,0,0,0l0,0v23.9c2.9,0,5.7-0.9,8.2-2.5L427.3,35
				c3.1-1.7,4.6-3.2,4.6-5.4V10.2L261.9,108.4z"/>
		</g>
		<g class="st26">
			<path class="st27" d="M237.7,386.9c3.7,2.2,7.9,3.1,12.2,2.9c0,0-0.2,0,0,0c0.2,0,0,0,0,0v23.9c-2.9,0-5.7-0.9-8.2-2.5
				L72.5,313.5c-3.2-1.7-4.6-3.2-4.6-5.4v-19.4L237.7,386.9z"/>
			<path class="st28" d="M237.7,365.4c3.7,2.2,7.9,3.1,12.2,2.9l0,0v23.9c-2.9,0-5.7-0.9-8.2-2.5L72.5,292.1
				c-3.2-1.7-4.6-3.2-4.6-5.4v-19.4L237.7,365.4z"/>
			<path class="st29" d="M237.7,344c3.7,2.2,7.9,3.1,12.2,2.9c0,0-0.2,0,0,0c0.2,0,0,0,0,0v23.9c-2.9,0-5.7-0.9-8.2-2.5L72.5,270.7
				c-3.2-1.7-4.6-3.2-4.6-5.4V246L237.7,344z"/>
			<path class="st30" d="M237.7,322.6c3.7,2.2,7.9,3.1,12.2,2.9l0,0v23.9c-2.9,0-5.7-0.8-8.2-2.5L72.5,249.2
				c-3.2-1.7-4.6-3.2-4.6-5.4v-19.4L237.7,322.6z"/>
			<path class="st31" d="M237.7,301.2c3.7,2.2,7.9,3.1,12.2,2.9c0,0-0.2,0,0,0c0.2,0,0,0,0,0V328c-2.9,0-5.7-0.9-8.2-2.5L72.5,227.8
				c-3.2-1.7-4.6-3.2-4.6-5.4V203L237.7,301.2z"/>
			<path class="st32" d="M237.7,279.8c3.7,2.2,7.9,3.1,12.2,2.8l0,0v24c-2.9,0-5.7-0.8-8.2-2.5L72.5,206.4c-3.2-1.7-4.6-3.2-4.6-5.4
				v-19.4L237.7,279.8z"/>
			<path class="st33" d="M237.7,258.3c3.7,2.2,7.9,3.1,12.2,2.9c0,0-0.2,0,0,0c0.2,0,0,0,0,0v24c-2.9,0-5.7-0.9-8.2-2.5L72.5,185.1
				c-3.2-1.7-4.6-3.2-4.6-5.4v-19.4L237.7,258.3z"/>
			<path class="st15" d="M237.7,236.9c3.7,2.2,7.9,3.1,12.2,2.8l0,0v24c-2.9,0-5.7-0.8-8.2-2.5L72.5,163.6c-3.2-1.7-4.6-3.2-4.6-5.4
				v-19.4L237.7,236.9z"/>
			<path class="st34" d="M237.7,215.5c3.7,2.2,7.9,3.1,12.2,2.9c0,0-0.2,0,0,0c0.2,0,0,0,0,0v23.9c-2.9,0-5.7-0.9-8.2-2.5
				L72.5,142.1c-3.2-1.7-4.6-3.2-4.6-5.4v-19.3L237.7,215.5z"/>
			<path class="st35" d="M237.7,194.1c3.7,2.2,7.9,3.1,12.2,2.8c0,0-0.2,0,0,0l0,0v24c-2.9,0-5.7-0.8-8.2-2.5L72.5,120.7
				c-3.2-1.7-4.6-3.2-4.6-5.4V95.9L237.7,194.1z"/>
			<path class="st20" d="M237.7,172.7c3.7,2.2,7.9,3.1,12.2,2.9c0,0-0.2,0,0,0c0.2,0,0,0,0,0v24c-2.9,0-5.7-0.9-8.2-2.5L72.5,99.5
				c-3.2-1.7-4.6-3.2-4.6-5.4V74.6L237.7,172.7z"/>
			<path class="st36" d="M237.7,151.2c3.7,2.2,7.9,3.1,12.2,2.9c0,0-0.2,0,0,0c0.2,0,0,0,0,0v24c-2.9,0-5.7-0.9-8.2-2.5L72.5,78
				c-3.2-1.7-4.6-3.2-4.6-5.4V53.1L237.7,151.2z"/>
			<path class="st37" d="M237.7,129.8c3.7,2.2,7.9,3.1,12.2,2.9l0,0v24c-2.9,0-5.7-0.9-8.2-2.5L72.5,56.5c-3.2-1.7-4.6-3.2-4.6-5.4
				V31.6L237.7,129.8z"/>
			<path class="st25" d="M237.7,108.4c3.7,2.2,7.9,3.1,12.2,2.8c0,0-0.2,0,0,0c0.2,0,0,0,0,0v23.9c-2.9,0-5.7-0.9-8.2-2.5L72.5,35
				c-3.2-1.7-4.6-3.2-4.6-5.4V10.2L237.7,108.4z"/>
		</g>
	</g>
</g>
</svg>
