<svg xmlns="http://www.w3.org/2000/svg" viewBox="0 0 512 512"><path d="M398.278,512H303.425A113.85,113.85,0,0,1,189.7,398.278V320.206h37.739v78.072a76.068,76.068,0,0,0,75.982,75.982h94.853a76.069,76.069,0,0,0,75.982-75.982V350.853a76.069,76.069,0,0,0-75.982-75.983H113.721A113.85,113.85,0,0,1,0,161.147V113.722A113.85,113.85,0,0,1,113.721,0h94.853A113.85,113.85,0,0,1,322.3,113.722v78.246h-37.74V113.722A76.067,76.067,0,0,0,208.574,37.74H113.721A76.067,76.067,0,0,0,37.74,113.722v47.425a76.068,76.068,0,0,0,75.981,75.983H398.278A113.851,113.851,0,0,1,512,350.853v47.425A113.851,113.851,0,0,1,398.278,512Z"/></svg>
