<?xml version="1.0" encoding="utf-8"?>
<!-- Generator: Adobe Illustrator 25.0.0, SVG Export Plug-In . SVG Version: 6.00 Build 0)  -->
<svg version="1.1" id="Layer_1" xmlns="http://www.w3.org/2000/svg" xmlns:xlink="http://www.w3.org/1999/xlink" x="0px" y="0px"
	 viewBox="0 0 500 500" style="enable-background:new 0 0 500 500;" xml:space="preserve">
<style type="text/css">
	.st0{opacity:0.2;}
	.st1{fill:#03A9F4;}
	.st2{opacity:0.1;enable-background:new    ;}
	.st3{opacity:0.65;fill:#FFFFFF;enable-background:new    ;}
	.st4{opacity:0.5;fill:#FFFFFF;enable-background:new    ;}
	.st5{fill:#455A64;}
	.st6{fill:#37474F;}
	.st7{opacity:0.15;fill:#FFFFFF;enable-background:new    ;}
	.st8{opacity:0.85;fill:#FFFFFF;enable-background:new    ;}
	.st9{opacity:0.75;}
	.st10{fill:#FFFFFF;}
	.st11{opacity:0.2;enable-background:new    ;}
	.st12{opacity:0.4;enable-background:new    ;}
	.st13{fill:#263238;}
	.st14{opacity:0.35;enable-background:new    ;}
	.st15{opacity:0.15;enable-background:new    ;}
</style>
<g>
	<g id="freepik--Shadows--inject-2" class="st0">
		<path id="freepik--Shadow--inject-2" d="M261.2,453.1L249,446c-0.5-0.1-0.7-0.7-0.6-1.2c0.1-0.2,0.4-0.5,0.6-0.6l227.1-131
			c1-0.5,2.2-0.5,3.2,0l12.1,7.1c0.9,0.5,0.9,1.4,0,1.9l-227.1,131C263.4,453.6,262.1,453.6,261.2,453.1z"/>
		<path id="freepik--shadow--inject-2" d="M229.1,329.6l-92,53.1c-2.5,1.2-5.4,1.2-8.1,0l-91.9-53.1c-2.2-1.2-2.2-3.3,0-4.6l92-53.1
			c2.5-1.2,5.4-1.2,7.9,0L229,325C231.3,326.3,231.3,328.4,229.1,329.6z"/>
	</g>
	<g id="freepik--Server--inject-2">
		<g id="freepik--server--inject-2">
			<polygon class="st1" points="222.5,290.4 133.2,341.9 43.8,290.4 133.2,238.7 			"/>
			<polygon class="st2" points="222.5,290.4 133.2,341.9 43.8,290.4 133.2,238.7 			"/>
			<polygon class="st2" points="133.2,341.9 133.2,335.4 49.4,287.1 43.8,290.4 			"/>
			<path class="st1" d="M133.2,341.9v35.3c2.1,0,4.1-0.5,5.9-1.4l0,0l38.6-22.3l41.1-23.8c2.1-1.4,3.5-3.7,3.6-6.2v-33.2
				L133.2,341.9z"/>
			<path class="st3" d="M133.2,341.9v35.3c2.1,0,4.1-0.5,5.9-1.4l0,0l38.6-22.3l41.1-23.8c2.1-1.4,3.5-3.7,3.6-6.2v-33.2
				L133.2,341.9z"/>
			<path class="st1" d="M43.8,290.4v33.2c0.1,2.5,1.5,4.8,3.6,6.2l35.5,20.6l44.3,25.5c1.9,1,3.8,1.5,5.9,1.4v-35.3L43.8,290.4z"/>
			<path class="st4" d="M43.8,290.4v33.2c0.1,2.5,1.5,4.8,3.6,6.2l35.5,20.6l44.3,25.5c1.9,1,3.8,1.5,5.9,1.4v-35.3L43.8,290.4z"/>
			<polygon class="st1" points="222.5,251.6 133.2,303.2 43.8,251.6 133.2,200.1 			"/>
			<polygon class="st2" points="222.5,251.6 133.2,303.2 43.8,251.6 133.2,200.1 			"/>
			<polygon class="st2" points="133.2,303.2 133.2,296.8 49.4,248.4 43.8,251.6 			"/>
			<polygon class="st1" points="222.5,277.4 133.1,329 133.2,303.2 222.5,251.6 			"/>
			<polygon class="st3" points="222.5,277.4 133.1,329 133.2,303.2 222.5,251.6 			"/>
			<polygon class="st1" points="133.1,329 43.8,277.4 43.8,251.6 133.2,303.2 			"/>
			<polygon class="st4" points="133.1,329 43.8,277.4 43.8,251.6 133.2,303.2 			"/>
			<polygon class="st5" points="211.2,290.4 211.2,283.8 133.1,329 133.2,335.4 			"/>
			<polygon class="st1" points="49.4,280.6 49.4,287.1 133.2,335.4 133.1,329 			"/>
			<polygon class="st6" points="49.4,280.6 49.4,287.1 133.2,335.4 133.1,329 			"/>
			<polygon class="st1" points="222.5,213 133.2,264.5 43.8,213 133.2,161.4 			"/>
			<polygon class="st2" points="222.5,213 133.2,264.5 43.8,213 133.2,161.4 			"/>
			<polygon class="st2" points="133.2,264.5 133.2,258 49.4,209.7 43.8,213 			"/>
			<polygon class="st1" points="222.5,238.7 133.1,290.4 133.2,264.5 222.5,213 			"/>
			<polygon class="st3" points="222.5,238.7 133.1,290.4 133.2,264.5 222.5,213 			"/>
			<polygon class="st1" points="133.1,290.4 43.8,238.7 43.8,213 133.2,264.5 			"/>
			<polygon class="st4" points="133.1,290.4 43.8,238.7 43.8,213 133.2,264.5 			"/>
			<polygon class="st5" points="211.2,251.6 211.2,245.2 133.1,290.4 133.2,296.8 			"/>
			<polygon class="st6" points="49.4,241.9 49.4,248.4 133.2,296.8 133.1,290.4 			"/>
			<polygon class="st5" points="211.2,213 211.2,206.5 133.1,251.6 133.2,258 			"/>
			<polygon class="st6" points="49.4,203.3 49.4,209.7 133.2,258 133.1,251.6 			"/>
			<polygon class="st1" points="222.5,174.3 133.2,225.8 43.8,174.3 133.2,122.7 			"/>
			<polygon class="st7" points="222.5,174.3 133.2,225.8 43.8,174.3 133.2,122.7 			"/>
			<polygon class="st2" points="222.5,174.3 133.2,225.8 43.8,174.3 133.2,122.7 			"/>
			<polygon class="st2" points="133.2,219.4 133.2,225.8 43.8,174.3 49.4,171.1 			"/>
			<polygon class="st1" points="222.5,200.1 133.1,251.6 133.2,225.8 222.5,174.3 			"/>
			<polygon class="st3" points="222.5,200.1 133.1,251.6 133.2,225.8 222.5,174.3 			"/>
			<polygon class="st1" points="133.1,251.6 43.8,200.1 43.8,174.3 133.2,225.8 			"/>
			<polygon class="st4" points="133.1,251.6 43.8,200.1 43.8,174.3 133.2,225.8 			"/>
			<polygon class="st5" points="211.2,174.3 211.2,167.9 133.1,213 133.2,219.4 			"/>
			<polygon class="st6" points="49.4,164.7 49.4,171.1 133.2,219.4 133.1,213 			"/>
			<polygon class="st1" points="222.5,135.5 133.2,187.1 43.8,135.5 133.2,83.9 			"/>
			<polygon class="st7" points="222.5,135.5 133.2,187.1 43.8,135.5 133.2,83.9 			"/>
			<polygon class="st2" points="222.5,135.5 133.2,187.1 43.8,135.5 133.2,83.9 			"/>
			<polygon class="st2" points="133.2,180.6 133.2,187.1 43.8,135.5 49.4,132.3 			"/>
			<polygon class="st1" points="222.5,161.3 133.1,212.8 133.2,187.1 222.5,135.5 			"/>
			<polygon class="st3" points="222.5,161.3 133.1,212.8 133.2,187.1 222.5,135.5 			"/>
			<polygon class="st1" points="133.1,212.8 43.8,161.3 43.8,135.5 133.2,187.1 			"/>
			<polygon class="st4" points="133.1,212.8 43.8,161.3 43.8,135.5 133.2,187.1 			"/>
			<path class="st1" d="M47.4,94.8l82.2-47.4c2.2-1.1,5-1.1,7.2,0l82.1,47.4c2.1,1.4,3.5,3.7,3.6,6.2v21.7l-89.4,51.5l0,0
				l-89.3-51.5V101C43.9,98.5,45.3,96.2,47.4,94.8z"/>
			<path class="st4" d="M47.4,94.8l82.2-47.4c2.2-1.1,5-1.1,7.2,0l82.1,47.4c2.1,1.4,3.5,3.7,3.6,6.2v21.7l-89.4,51.5l0,0
				l-89.3-51.5V101C43.9,98.5,45.3,96.2,47.4,94.8z"/>
			<path class="st1" d="M133.1,147.2v27l89.4-51.5V101c-0.1-2.2-1.2-4.3-3-5.7c1.2,1.1,1.1,2.7-0.6,3.7l-82.2,47.4
				C135.6,146.9,134.3,147.2,133.1,147.2z"/>
			<path class="st3" d="M133.1,147.2v27l89.4-51.5V101c-0.1-2.2-1.2-4.3-3-5.7c1.2,1.1,1.1,2.7-0.6,3.7l-82.2,47.4
				C135.6,146.9,134.3,147.2,133.1,147.2z"/>
			<path class="st1" d="M218.9,98.9l-82.2,47.4c-2.2,1.1-5,1.1-7.2,0L47.4,98.9c-2-1.1-2-3,0-4.1l82.2-47.4c2.2-1.1,5-1.1,7.2,0
				l82.1,47.4C220.9,95.9,220.9,97.8,218.9,98.9z"/>
			<path class="st8" d="M218.9,98.9l-82.2,47.4c-2.2,1.1-5,1.1-7.2,0L47.4,98.9c-2-1.1-2-3,0-4.1l82.2-47.4c2.2-1.1,5-1.1,7.2,0
				l82.1,47.4C220.9,95.9,220.9,97.8,218.9,98.9z"/>
			<polygon class="st5" points="211.2,135.5 211.2,129.1 133.1,174.2 133.2,180.6 			"/>
			<polygon class="st6" points="49.4,125.9 49.4,132.3 133.2,180.6 133.1,174.2 			"/>
			<path class="st5" d="M63.2,331.4c0.7,0.5,1.2,1.2,1.2,2.1c0,0.7-0.5,1.1-1.2,0.7c-0.7-0.5-1.2-1.2-1.2-2.1
				C62,331.4,62.6,331,63.2,331.4z"/>
			<path class="st5" d="M73.7,337.4c0.7,0.5,1.2,1.2,1.2,2.1c0,0.7-0.5,1.1-1.2,0.7c-0.7-0.5-1.2-1.2-1.2-2.1S72.9,336.9,73.7,337.4
				z"/>
			<path class="st5" d="M83.8,343.2c0.7,0.5,1.2,1.2,1.2,2.1c0,0.7-0.5,1.1-1.2,0.7c-0.7-0.5-1.2-1.2-1.2-2.1S83.1,342.9,83.8,343.2
				z"/>
			<path class="st5" d="M94,349.2c0.7,0.5,1.2,1.2,1.2,2.1c0,0.7-0.5,1.1-1.2,0.7c-0.7-0.5-1.2-1.2-1.2-2.1S93.3,348.8,94,349.2z"/>
			<g class="st9">
				<path class="st10" d="M51.2,301l10.5,6.1c1.7,1.1,2.8,3.1,3,5.2v6.1c0,1.9-1.4,2.6-3,1.7L51.2,314c-1.7-1.1-2.8-3.1-3-5.2v-6.1
					C48.3,300.8,49.6,300,51.2,301z"/>
			</g>
			<path class="st1" d="M54.1,307.8l1.4-0.7l0,0c0.6-0.2,1.2-0.2,1.9,0.1c1.5,1,2.5,2.6,2.6,4.5c0.1,0.6-0.2,1.2-0.7,1.7l0,0
				l-1.2,0.7l-0.2-0.4c-0.2-0.1-0.5-0.1-0.7-0.2c-1.5-1-2.5-2.6-2.6-4.5c0-0.2,0-0.5,0.1-0.6L54.1,307.8z"/>
			<path class="st11" d="M54.1,307.8l1.4-0.7l0,0c0.6-0.2,1.2-0.2,1.9,0.1c1.5,1,2.5,2.6,2.6,4.5c0.1,0.6-0.2,1.2-0.7,1.7l0,0
				l-1.2,0.7l-0.2-0.4c-0.2-0.1-0.5-0.1-0.7-0.2c-1.5-1-2.5-2.6-2.6-4.5c0-0.2,0-0.5,0.1-0.6L54.1,307.8z"/>
			<path class="st1" d="M55.9,307.9c1.5,1,2.5,2.6,2.6,4.5c0,1.6-1.1,2.4-2.6,1.5c-1.5-1-2.5-2.7-2.6-4.5
				C53.3,307.7,54.5,307.1,55.9,307.9z"/>
			<g class="st9">
				<path class="st10" d="M51.2,262.2l10.5,6.1c1.7,1.1,2.8,3.1,3,5.2v6.1c0,1.9-1.4,2.6-3,1.7l-10.5-6.1c-1.7-1.1-2.8-3-3-5.1v-6.1
					C48.3,262.1,49.6,261.4,51.2,262.2z"/>
			</g>
			<path class="st1" d="M54.1,269.1l1.4-0.7l0,0c0.6-0.2,1.2-0.2,1.9,0.1c1.5,1,2.5,2.6,2.6,4.5c0.1,0.6-0.2,1.2-0.7,1.7l0,0
				l-1.2,0.7l-0.4-0.4c-0.2,0-0.5-0.1-0.7-0.2c-1.5-1-2.5-2.6-2.6-4.5c0-0.2,0-0.5,0.1-0.6L54.1,269.1z"/>
			<path class="st11" d="M54.1,269.1l1.4-0.7l0,0c0.6-0.2,1.2-0.2,1.9,0.1c1.5,1,2.5,2.6,2.6,4.5c0.1,0.6-0.2,1.2-0.7,1.7l0,0
				l-1.2,0.7l-0.4-0.4c-0.2,0-0.5-0.1-0.7-0.2c-1.5-1-2.5-2.6-2.6-4.5c0-0.2,0-0.5,0.1-0.6L54.1,269.1z"/>
			<path class="st1" d="M55.9,269.2c1.5,1,2.5,2.6,2.6,4.5c0,1.6-1.1,2.4-2.6,1.5c-1.5-1-2.5-2.7-2.6-4.5
				C53.3,269.1,54.5,268.3,55.9,269.2z"/>
			<g class="st9">
				<path class="st10" d="M51.2,223.6l10.5,6.1c1.7,1.1,2.8,3.1,3,5.2v6.1c0,1.9-1.4,2.7-3,1.7l-10.5-6.1c-1.7-1.1-2.8-3.1-3-5.2
					v-6.1C48.3,223.4,49.6,222.6,51.2,223.6z"/>
			</g>
			<path class="st1" d="M54.1,230.4l1.4-0.7l0,0c0.6-0.2,1.2-0.2,1.9,0.1c1.5,1,2.5,2.7,2.6,4.5c0.1,0.6-0.2,1.2-0.7,1.7l0,0
				l-1.2,0.7l-0.2-0.4c-0.2,0-0.5-0.1-0.7-0.2c-1.5-1-2.5-2.6-2.6-4.5c0-0.2,0-0.5,0.1-0.6L54.1,230.4z"/>
			<path class="st11" d="M54.1,230.4l1.4-0.7l0,0c0.6-0.2,1.2-0.2,1.9,0.1c1.5,1,2.5,2.7,2.6,4.5c0.1,0.6-0.2,1.2-0.7,1.7l0,0
				l-1.2,0.7l-0.2-0.4c-0.2,0-0.5-0.1-0.7-0.2c-1.5-1-2.5-2.6-2.6-4.5c0-0.2,0-0.5,0.1-0.6L54.1,230.4z"/>
			<path class="st1" d="M55.9,230.5c1.5,1,2.5,2.7,2.6,4.5c0,1.6-1.1,2.4-2.6,1.5c-1.5-1-2.5-2.7-2.6-4.5
				C53.3,230.4,54.5,229.7,55.9,230.5z"/>
			<g class="st9">
				<path class="st10" d="M51.2,185l10.5,6.1c1.7,1.1,2.8,3.1,3,5.2v6.1c0,1.9-1.4,2.6-3,1.7L51.2,198c-1.7-1.1-2.8-3.1-3-5.2v-6.1
					C48.3,184.7,49.6,184,51.2,185z"/>
			</g>
			<path class="st1" d="M54.1,191.8l1.4-0.7l0,0c0.6-0.2,1.2-0.2,1.9,0.1c1.5,1,2.5,2.7,2.6,4.5c0.1,0.6-0.2,1.2-0.7,1.7l0,0
				l-1.2,0.7l-0.2-0.4c-0.2,0-0.5-0.1-0.7-0.2c-1.5-1-2.5-2.6-2.6-4.5c0-0.2,0-0.5,0.1-0.6L54.1,191.8z"/>
			<path class="st11" d="M54.1,191.8l1.4-0.7l0,0c0.6-0.2,1.2-0.2,1.9,0.1c1.5,1,2.5,2.7,2.6,4.5c0.1,0.6-0.2,1.2-0.7,1.7l0,0
				l-1.2,0.7l-0.2-0.4c-0.2,0-0.5-0.1-0.7-0.2c-1.5-1-2.5-2.6-2.6-4.5c0-0.2,0-0.5,0.1-0.6L54.1,191.8z"/>
			<path class="st1" d="M55.9,191.9c1.5,1,2.5,2.6,2.6,4.5c0,1.6-1.1,2.4-2.6,1.5c-1.5-1-2.5-2.6-2.6-4.5
				C53.3,191.8,54.5,191,55.9,191.9z"/>
			<g class="st9">
				<path class="st10" d="M51.2,146.2l10.5,6.1c1.7,1.1,2.8,3.1,3,5.2v6.1c0,1.9-1.4,2.7-3,1.7l-10.5-6.1c-1.7-1.1-2.8-3.1-3-5.2
					v-6.1C48.3,146.1,49.6,145.2,51.2,146.2z"/>
			</g>
			<path class="st1" d="M54.1,153l1.4-0.7l0,0c0.6-0.2,1.2-0.2,1.9,0.1c1.5,1,2.5,2.7,2.6,4.5c0.1,0.6-0.2,1.2-0.7,1.7l0,0l-1.2,0.7
				l-0.2-0.4c-0.2,0-0.5-0.1-0.7-0.2c-1.5-1-2.5-2.6-2.6-4.5c0-0.2,0-0.5,0.1-0.6L54.1,153z"/>
			<path class="st11" d="M54.1,153l1.4-0.7l0,0c0.6-0.2,1.2-0.2,1.9,0.1c1.5,1,2.5,2.7,2.6,4.5c0.1,0.6-0.2,1.2-0.7,1.7l0,0
				l-1.2,0.7l-0.2-0.4c-0.2,0-0.5-0.1-0.7-0.2c-1.5-1-2.5-2.6-2.6-4.5c0-0.2,0-0.5,0.1-0.6L54.1,153z"/>
			<path class="st1" d="M55.9,153.1c1.5,1,2.5,2.7,2.6,4.5c0,1.6-1.1,2.4-2.6,1.5c-1.5-1-2.5-2.6-2.6-4.5
				C53.3,153,54.5,152.3,55.9,153.1z"/>
			<g class="st9">
				<path class="st10" d="M51.2,107.6l10.5,6.1c1.7,1.1,2.8,3.1,3,5.2v6.1c0,1.9-1.4,2.6-3,1.7l-10.5-6.1c-1.7-1.1-2.8-3.1-3-5.2
					v-6.1C48.3,107.3,49.6,106.6,51.2,107.6z"/>
			</g>
			<path class="st1" d="M54.1,114.2l1.4-0.7l0,0c0.6-0.2,1.2-0.2,1.9,0.1c1.5,1,2.5,2.6,2.6,4.5c0.1,0.6-0.2,1.2-0.7,1.7l0,0
				l-1.2,0.7l-0.4-0.4c-0.2-0.1-0.5-0.1-0.7-0.2c-1.5-1-2.5-2.6-2.6-4.5c0-0.2,0-0.5,0.1-0.6L54.1,114.2z"/>
			<path class="st11" d="M54.1,114.2l1.4-0.7l0,0c0.6-0.2,1.2-0.2,1.9,0.1c1.5,1,2.5,2.6,2.6,4.5c0.1,0.6-0.2,1.2-0.7,1.7l0,0
				l-1.2,0.7l-0.4-0.4c-0.2-0.1-0.5-0.1-0.7-0.2c-1.5-1-2.5-2.6-2.6-4.5c0-0.2,0-0.5,0.1-0.6L54.1,114.2z"/>
			<path class="st1" d="M55.9,114.5c1.5,1,2.5,2.7,2.6,4.5c0,1.6-1.1,2.4-2.6,1.5c-1.5-1-2.5-2.7-2.6-4.5
				C53.3,114.2,54.5,113.6,55.9,114.5z"/>
			<path class="st5" d="M213.8,301.8l-44.3,25.5c-1.7,1.1-2.8,3.1-3,5.2v6.1c0,1.9,1.4,2.6,3,1.7l44.3-25.5c1.7-1.1,2.8-3.1,3-5.2
				v-6.1C216.9,301.5,215.6,300.8,213.8,301.8z"/>
			<path class="st1" d="M213.7,306.8v2.8c0,0.4-0.2,0.9-0.6,1l-0.6,0.4c-0.4,0.1-0.6,0-0.6-0.4v-3c0-0.4,0.2-0.7,0.6-1l0.6-0.4
				C213.5,306.2,213.7,306.5,213.7,306.8z"/>
			<path class="st1" d="M210.7,308.6v3c0,0.4-0.2,0.9-0.6,1l-0.6,0.4c-0.4,0.1-0.6,0-0.6-0.4v-3c0-0.4,0.2-0.7,0.6-1l0.6-0.4
				C210.5,307.9,210.7,308.2,210.7,308.6z"/>
			<path class="st1" d="M207.8,310.3v3c0,0.4-0.2,0.7-0.6,1l-0.7,0.4c-0.4,0.1-0.6,0-0.6-0.4v-3c0-0.4,0.2-0.7,0.6-1l0.7-0.4
				C207.5,309.7,207.8,309.9,207.8,310.3z"/>
			<path class="st6" d="M204.7,312v3c0,0.4-0.2,0.7-0.6,1l-0.6,0.4c-0.4,0.1-0.6,0-0.6-0.4v-3c0-0.4,0.2-0.9,0.6-1l0.6-0.4
				C204.4,311.4,204.7,311.7,204.7,312z"/>
			<path class="st6" d="M201.7,313.8v3c0,0.4-0.2,0.7-0.6,1l-0.6,0.4c-0.4,0.1-0.6,0-0.6-0.4v-3c0-0.4,0.2-0.9,0.6-1l0.6-0.4
				C201.5,313.1,201.7,313.4,201.7,313.8z"/>
			<path class="st1" d="M198.7,315.5v2.8c0,0.4-0.2,0.9-0.6,1l-0.6,0.4c-0.4,0.1-0.6,0-0.6-0.4v-3c0-0.4,0.2-0.9,0.6-1l0.6-0.4
				C198.5,314.9,198.7,315.1,198.7,315.5z"/>
			<path class="st1" d="M195.8,317.2v3c0,0.4-0.2,0.9-0.6,1l-0.6,0.4c-0.1,0.1-0.4,0.1-0.5-0.1c0-0.1-0.1-0.1-0.1-0.2v-3
				c0-0.4,0.2-0.7,0.6-1l0.6-0.4C195.4,316.6,195.8,316.9,195.8,317.2z"/>
			<path class="st1" d="M192.7,319v3c0,0.4-0.2,0.9-0.6,1l-0.6,0.4c-0.1,0.1-0.4,0.1-0.5-0.1c0-0.1-0.1-0.1-0.1-0.2v-3
				c0-0.4,0.2-0.7,0.6-1l0.6-0.4C192.4,318.3,192.7,318.6,192.7,319z"/>
			<path class="st1" d="M189.7,320.7v3c0,0.4-0.2,0.7-0.6,1l-0.7,0.4c-0.1,0.1-0.4,0.1-0.5-0.1c0-0.1-0.1-0.1-0.1-0.2v-3
				c0-0.4,0.2-0.7,0.6-1l0.7-0.4C189.4,320.1,189.7,320.3,189.7,320.7z"/>
			<path class="st1" d="M186.7,322.4v3c0,0.4-0.2,0.7-0.6,1l-0.6,0.4c-0.4,0.1-0.6,0-0.6-0.4v-3c0-0.4,0.2-0.9,0.6-1l0.6-0.4
				C186.5,321.8,186.7,322.1,186.7,322.4z"/>
			<path class="st1" d="M183.6,324.2v2.8c0,0.4-0.2,0.7-0.6,1l-0.6,0.4c-0.4,0.1-0.6,0-0.6-0.4v-3c0-0.4,0.2-0.9,0.6-1l0.6-0.4
				C183.4,323.5,183.6,323.8,183.6,324.2z"/>
			<path class="st1" d="M180.7,325.9v3c0,0.4-0.2,0.9-0.6,1l-0.6,0.4c-0.4,0.1-0.6,0-0.6-0.4v-3c0-0.4,0.2-0.9,0.6-1l0.6-0.4
				C180.4,325.3,180.7,325.5,180.7,325.9z"/>
			<path class="st6" d="M177.7,327.6v3c0,0.4-0.2,0.9-0.6,1l-0.6,0.4c-0.1,0.1-0.4,0.1-0.5-0.1c0-0.1-0.1-0.1-0.1-0.2v-3
				c0-0.4,0.2-0.7,0.6-1l0.6-0.4C177.4,327,177.7,327.3,177.7,327.6z"/>
			<path class="st1" d="M174.7,329.4v3c0,0.4-0.2,0.9-0.6,1l-0.6,0.4c-0.4,0.2-0.6,0-0.6-0.4v-3c0-0.4,0.2-0.7,0.6-1l0.6-0.4
				C174.3,328.8,174.7,329,174.7,329.4z"/>
			<path class="st1" d="M171.6,331.1v3c0,0.4-0.2,0.7-0.6,1l-0.7,0.4c-0.4,0.2-0.6,0-0.6-0.4v-3c0-0.4,0.2-0.7,0.6-1l0.7-0.4
				c0.1-0.1,0.4-0.1,0.5,0.1C171.6,330.9,171.6,331,171.6,331.1z"/>
			<path class="st5" d="M213.8,263l-44.2,25.6c-1.7,1.1-2.8,3.1-3,5.2v5.9c0,1.9,1.4,2.7,3,1.7L214,276c1.7-1.1,2.8-3.1,3-5.2v-6.1
				C216.9,262.9,215.6,262.1,213.8,263z"/>
			<path class="st1" d="M213.7,268.2v3c0,0.4-0.2,0.9-0.6,1l-0.6,0.4c-0.4,0.2-0.6,0-0.6-0.4v-3c0-0.4,0.2-0.7,0.6-1l0.6-0.4
				C213.5,267.6,213.7,267.7,213.7,268.2z"/>
			<path class="st6" d="M210.7,269.9v3c0,0.4-0.2,0.9-0.6,1l-0.6,0.4c-0.4,0.2-0.6,0-0.6-0.4v-3c0-0.4,0.2-0.7,0.6-1l0.6-0.4
				C210.5,269.3,210.7,269.4,210.7,269.9z"/>
			<path class="st1" d="M207.8,271.5v3c0,0.4-0.2,0.7-0.6,1l-0.7,0.4c-0.4,0.2-0.6,0-0.6-0.4v-3c0-0.4,0.2-0.7,0.6-1l0.7-0.4
				c0.1-0.1,0.4-0.1,0.5,0.1C207.8,271.4,207.8,271.5,207.8,271.5z"/>
			<path class="st6" d="M204.7,273.3v3c0,0.4-0.2,0.7-0.6,1l-0.6,0.4c-0.4,0.2-0.6,0-0.6-0.4v-3c0-0.4,0.2-0.9,0.6-1l0.6-0.4
				c0.1-0.1,0.4-0.1,0.5,0.1C204.7,273.1,204.8,273.3,204.7,273.3z"/>
			<path class="st6" d="M201.7,275v3c0,0.4-0.2,0.7-0.6,1l-0.6,0.4c-0.4,0.2-0.6,0-0.6-0.4v-3c0-0.4,0.2-0.9,0.6-1l0.6-0.4
				C201.5,274.5,201.7,274.6,201.7,275z"/>
			<path class="st1" d="M198.7,276.9v3c0,0.4-0.2,0.9-0.6,1l-0.6,0.4c-0.4,0.2-0.6,0-0.6-0.4v-3c0-0.4,0.2-0.9,0.6-1l0.6-0.4
				C198.5,276.2,198.7,276.4,198.7,276.9z"/>
			<path class="st1" d="M195.8,278.6v3c0,0.4-0.2,0.9-0.6,1l-0.6,0.4c-0.4,0.2-0.6,0-0.6-0.4v-3c0-0.4,0.2-0.7,0.6-1l0.6-0.4
				C195.4,278,195.8,278.1,195.8,278.6z"/>
			<path class="st1" d="M192.7,280.2v3c0,0.4-0.2,0.9-0.6,1l-0.6,0.4c-0.4,0.2-0.6,0-0.6-0.4v-3c0-0.4,0.2-0.7,0.6-1l0.6-0.4
				C192.4,279.7,192.7,279.8,192.7,280.2z"/>
			<path class="st6" d="M189.7,281.9v3c0,0.4-0.2,0.7-0.6,1l-0.7,0.4c-0.4,0.2-0.6,0-0.6-0.4v-3c0-0.4,0.2-0.7,0.6-1l0.7-0.4
				C189.4,281.4,189.7,281.6,189.7,281.9z"/>
			<path class="st1" d="M186.7,283.7v3c0,0.4-0.2,0.7-0.6,1l-0.6,0.4c-0.4,0.2-0.6,0-0.6-0.4v-3c0-0.4,0.2-0.9,0.6-1l0.6-0.4
				C186.5,283.2,186.7,283.3,186.7,283.7z"/>
			<path class="st6" d="M183.6,285.5v3c0,0.4-0.2,0.7-0.6,1l-0.6,0.4c-0.4,0.2-0.6,0-0.6-0.4v-3c0-0.4,0.2-0.9,0.6-1l0.6-0.4
				C183.4,284.9,183.6,285,183.6,285.5z"/>
			<path class="st1" d="M180.7,287.3v3c0,0.4-0.2,0.9-0.6,1l-0.6,0.4c-0.4,0.2-0.6,0-0.6-0.4v-3c0-0.4,0.2-0.9,0.6-1l0.6-0.4
				C180.4,286.6,180.7,286.8,180.7,287.3z"/>
			<path class="st6" d="M177.7,288.9v3c0,0.4-0.2,0.7-0.6,1l-0.6,0.4c-0.4,0.2-0.6,0-0.6-0.4v-3c0-0.4,0.2-0.7,0.6-1l0.6-0.4
				C177.4,288.4,177.7,288.5,177.7,288.9z"/>
			<path class="st1" d="M174.7,290.6v3c0,0.4-0.2,0.7-0.6,1l-0.6,0.4c-0.4,0.2-0.6,0-0.6-0.4v-3c0-0.4,0.2-0.7,0.6-1l0.6-0.4
				C174.3,290.1,174.7,290.2,174.7,290.6z"/>
			<path class="st1" d="M171.6,292.3v3c0,0.4-0.2,0.7-0.6,1l-0.7,0.4c-0.4,0.2-0.6,0-0.6-0.4v-3c0-0.4,0.2-0.7,0.6-1l0.7-0.4
				C171.4,291.8,171.6,292,171.6,292.3z"/>
			<path class="st5" d="M213.8,224.3l-44.3,25.5c-1.7,1.1-2.8,3.1-3,5.2v6.1c0,1.9,1.4,2.6,3,1.7l44.3-25.5c1.7-1.1,2.8-3.1,3-5.2
				v-6.1C216.9,224.1,215.6,223.4,213.8,224.3z"/>
			<path class="st1" d="M213.7,229.4v3c0,0.4-0.2,0.9-0.6,1l-0.6,0.4c-0.4,0.1-0.6,0-0.6-0.4v-3c0-0.4,0.2-0.7,0.6-1l0.6-0.4
				C213.5,228.9,213.7,229.1,213.7,229.4z"/>
			<path class="st1" d="M210.7,231.2v3c0,0.4-0.2,0.9-0.6,1l-0.6,0.4c-0.4,0.1-0.6,0-0.6-0.4v-3c0-0.4,0.2-0.7,0.6-1l0.6-0.4
				C210.5,230.7,210.7,230.8,210.7,231.2z"/>
			<path class="st1" d="M207.8,232.9v3c0,0.4-0.2,0.7-0.6,1l-0.7,0.4c-0.1,0.1-0.4,0.1-0.5-0.1c0-0.1-0.1-0.1-0.1-0.2v-3
				c0-0.4,0.2-0.7,0.6-1l0.7-0.4C207.5,232.4,207.8,232.5,207.8,232.9z"/>
			<path class="st1" d="M204.7,234.6v3c0,0.4-0.2,0.7-0.6,1l-0.6,0.4c-0.4,0.1-0.6,0-0.6-0.4v-3c0-0.4,0.2-0.9,0.6-1l0.6-0.4
				C204.4,234.1,204.7,234.3,204.7,234.6z"/>
			<path class="st6" d="M201.7,236.4v3c0,0.4-0.2,0.7-0.6,1l-0.6,0.4c-0.4,0.1-0.6,0-0.6-0.4v-3c0-0.4,0.2-0.9,0.6-1l0.6-0.4
				C201.5,235.9,201.7,236,201.7,236.4z"/>
			<path class="st6" d="M198.7,238.1v3c0,0.4-0.2,0.9-0.6,1l-0.6,0.4c-0.4,0.1-0.6,0-0.6-0.4v-3c0-0.4,0.2-0.9,0.6-1l0.6-0.4
				C198.5,237.6,198.7,237.7,198.7,238.1z"/>
			<path class="st1" d="M195.8,239.8v3c0,0.4-0.2,0.9-0.6,1l-0.6,0.4c-0.1,0.1-0.4,0.1-0.5-0.1c0-0.1-0.1-0.1-0.1-0.2v-3
				c0-0.4,0.2-0.7,0.6-1l0.6-0.4C195.4,239.3,195.8,239.5,195.8,239.8z"/>
			<path class="st1" d="M192.7,241.6v3c0,0.4-0.2,0.9-0.6,1l-0.6,0.4c-0.1,0.1-0.4,0.1-0.5-0.1c0-0.1-0.1-0.1-0.1-0.2v-3
				c0-0.4,0.2-0.7,0.6-1l0.6-0.4C192.4,241.1,192.7,241.2,192.7,241.6z"/>
			<path class="st1" d="M189.7,243.3v3c0,0.4-0.2,0.7-0.6,1l-0.7,0.4c-0.1,0.1-0.4,0.1-0.5-0.1c0-0.1-0.1-0.1-0.1-0.2v-3
				c0-0.4,0.2-0.7,0.6-1l0.7-0.4C189.4,242.8,189.7,242.9,189.7,243.3z"/>
			<path class="st6" d="M186.7,245v3c0,0.4-0.2,0.7-0.6,1l-0.6,0.4c-0.4,0.2-0.6,0-0.6-0.4v-3c0-0.4,0.2-0.9,0.6-1l0.6-0.4
				C186.5,244.5,186.7,244.7,186.7,245z"/>
			<path class="st1" d="M183.6,246.8v3c0,0.4-0.2,0.7-0.6,1l-0.6,0.4c-0.4,0.2-0.6,0-0.6-0.4v-3c0-0.4,0.2-0.9,0.6-1l0.6-0.4
				c0.1-0.1,0.4-0.1,0.5,0.1C183.6,246.5,183.8,246.6,183.6,246.8z"/>
			<path class="st1" d="M180.7,248.5v3c0,0.4-0.2,0.9-0.6,1l-0.6,0.4c-0.4,0.2-0.6,0-0.6-0.4v-3c0-0.4,0.2-0.9,0.6-1l0.6-0.4
				C180.4,248,180.7,248.1,180.7,248.5z"/>
			<path class="st6" d="M177.7,250.2v3c0,0.4-0.2,0.9-0.6,1l-0.6,0.4c-0.4,0.2-0.6,0-0.6-0.4v-3c0-0.5,0.2-0.9,0.6-1.1l0.6-0.4
				C177.4,249.7,177.7,249.9,177.7,250.2z"/>
			<path class="st1" d="M174.7,252v3c0,0.4-0.2,0.9-0.6,1l-0.6,0.4c-0.4,0.2-0.6,0-0.6-0.4v-3c0-0.4,0.2-0.7,0.6-1l0.6-0.4
				C174.3,251.5,174.7,251.6,174.7,252z"/>
			<path class="st6" d="M171.6,253.7v3c0,0.4-0.2,0.7-0.6,1l-0.7,0.4c-0.4,0.2-0.6,0-0.6-0.4v-3c0-0.4,0.2-0.7,0.6-1l0.7-0.4
				c0.1-0.1,0.4-0.1,0.5,0.1C171.6,253.5,171.6,253.6,171.6,253.7z"/>
			<path class="st5" d="M213.8,185.7l-44.3,25.5c-1.7,1.1-2.8,3.1-3,5.2v6.1c0,1.9,1.4,2.7,3,1.7l44.3-25.5c1.7-1.1,2.8-3.1,3-5.2
				v-6.1C216.9,185.5,215.6,184.7,213.8,185.7z"/>
			<path class="st1" d="M213.7,190.8v3c0,0.4-0.2,0.7-0.6,1l-0.6,0.4c-0.4,0.2-0.6,0-0.6-0.4v-3c0-0.4,0.2-0.7,0.6-1l0.6-0.4
				C213.5,190.3,213.7,190.4,213.7,190.8z"/>
			<path class="st6" d="M210.7,192.5v3c0,0.4-0.2,0.7-0.6,1l-0.6,0.4c-0.4,0.1-0.6,0-0.6-0.4v-3c0-0.4,0.2-0.7,0.6-1l0.6-0.4
				C210.5,192,210.7,192.1,210.7,192.5z"/>
			<path class="st1" d="M207.8,194.3v3c0,0.4-0.2,0.7-0.6,1l-0.7,0.4c-0.4,0.1-0.6,0-0.6-0.4v-3c0-0.4,0.2-0.7,0.6-1l0.7-0.4
				C207.5,193.8,207.8,193.9,207.8,194.3z"/>
			<path class="st1" d="M204.7,196v3c0,0.4-0.2,0.7-0.6,1l-0.6,0.4c-0.4,0.1-0.6,0-0.6-0.4v-3c0-0.4,0.2-0.9,0.6-1l0.6-0.4
				C204.4,195.5,204.7,195.6,204.7,196z"/>
			<path class="st1" d="M201.7,197.7v3c0,0.4-0.2,0.7-0.6,1l-0.6,0.4c-0.4,0.1-0.6,0-0.6-0.4v-3c0-0.4,0.2-0.9,0.6-1l0.6-0.4
				C201.5,197.2,201.7,197.3,201.7,197.7z"/>
			<path class="st6" d="M198.7,199.5v3c0,0.4-0.2,0.7-0.6,1l-0.6,0.4c-0.4,0.1-0.6,0-0.6-0.4v-3c0-0.5,0.2-0.9,0.6-1.1l0.6-0.4
				C198.5,199,198.7,199.1,198.7,199.5z"/>
			<path class="st6" d="M195.8,201.2v3c0,0.4-0.2,0.7-0.6,1l-0.6,0.4c-0.4,0.1-0.6,0-0.6-0.4v-3c0-0.4,0.2-0.7,0.6-1l0.6-0.4
				C195.4,200.7,195.8,200.8,195.8,201.2z"/>
			<path class="st1" d="M192.7,202.9v3c0,0.4-0.2,0.7-0.6,1l-0.6,0.4c-0.4,0.1-0.6,0-0.6-0.4v-3c0-0.4,0.2-0.7,0.6-1l0.6-0.4
				C192.4,202.4,192.7,202.6,192.7,202.9z"/>
			<path class="st6" d="M189.7,204.7v3c0,0.4-0.2,0.7-0.6,1l-0.7,0.4c-0.4,0.1-0.6,0-0.6-0.4v-3c0-0.4,0.2-0.7,0.6-1l0.7-0.4
				C189.4,204.2,189.7,204.3,189.7,204.7z"/>
			<path class="st1" d="M186.7,206.4v3c0,0.4-0.2,0.7-0.6,1l-0.6,0.4c-0.4,0.1-0.6,0-0.6-0.4v-3c0-0.4,0.2-0.7,0.6-1l0.6-0.4
				C186.5,205.9,186.7,206,186.7,206.4z"/>
			<path class="st1" d="M183.6,208.1v3c0,0.4-0.2,0.7-0.6,1l-0.6,0.4c-0.4,0.1-0.6,0-0.6-0.4v-3c0-0.4,0.2-0.7,0.6-1l0.6-0.4
				C183.4,207.6,183.6,207.8,183.6,208.1z"/>
			<path class="st1" d="M180.7,209.9v3c0,0.4-0.2,0.7-0.6,1l-0.6,0.4c-0.4,0.1-0.6,0-0.6-0.4v-3c0-0.4,0.2-0.7,0.6-1l0.6-0.4
				C180.4,209.4,180.7,209.5,180.7,209.9z"/>
			<path class="st6" d="M177.7,211.6v3c0,0.4-0.2,0.7-0.6,1l-0.6,0.4c-0.4,0.1-0.6,0-0.6-0.4v-3c0-0.4,0.2-0.7,0.6-1l0.6-0.4
				C177.4,211.1,177.7,211.2,177.7,211.6z"/>
			<path class="st1" d="M174.7,213.3v3c0,0.4-0.2,0.7-0.6,1l-0.6,0.4c-0.4,0.1-0.6,0-0.6-0.4v-3c0-0.4,0.2-0.7,0.6-1l0.6-0.4
				C174.3,212.8,174.7,213,174.7,213.3z"/>
			<path class="st1" d="M171.6,215.1v3c0,0.4-0.2,0.7-0.6,1l-0.7,0.4c-0.4,0.1-0.6,0-0.6-0.4v-3c0-0.4,0.2-0.7,0.6-1l0.7-0.4
				C171.4,214.6,171.6,214.7,171.6,215.1z"/>
			<path class="st5" d="M213.8,146.9l-44.3,25.5c-1.7,1.1-2.8,3.1-3,5.2v6.1c0,1.9,1.4,2.6,3,1.7l44.3-25.5c1.7-1.1,2.8-3.1,3-5.2
				v-6.1C216.9,146.7,215.6,146,213.8,146.9z"/>
			<path class="st1" d="M213.7,152v3c0,0.4-0.2,0.9-0.6,1l-0.6,0.4c-0.1,0.1-0.4,0.1-0.5-0.1c0-0.1-0.1-0.1-0.1-0.2v-3
				c0-0.4,0.2-0.7,0.6-1l0.6-0.4C213.5,151.5,213.7,151.6,213.7,152z"/>
			<path class="st6" d="M210.7,153.8v3c0,0.4-0.2,0.9-0.6,1l-0.6,0.4c-0.1,0.1-0.4,0.1-0.5-0.1c0-0.1-0.1-0.1-0.1-0.2v-2.8
				c0-0.4,0.2-0.7,0.6-1l0.6-0.4C210.5,153.3,210.7,153.4,210.7,153.8z"/>
			<path class="st1" d="M207.8,155.5v3c0,0.4-0.2,0.7-0.6,1l-0.7,0.4c-0.1,0.1-0.4,0.1-0.5-0.1c0-0.1-0.1-0.1-0.1-0.2v-3
				c0-0.4,0.2-0.7,0.6-1l0.7-0.4C207.5,155,207.8,155.1,207.8,155.5z"/>
			<path class="st1" d="M204.7,157.2v3c0,0.4-0.2,0.7-0.6,1l-0.6,0.4c-0.4,0.2-0.6,0-0.6-0.4v-3c0-0.4,0.2-0.9,0.6-1l0.6-0.4
				C204.4,156.7,204.7,156.9,204.7,157.2z"/>
			<path class="st1" d="M201.7,159v3c0,0.4-0.2,0.7-0.6,1l-0.6,0.4c-0.4,0.2-0.6,0-0.6-0.4v-3c0-0.4,0.2-0.9,0.6-1l0.6-0.4
				c0.1-0.1,0.4-0.1,0.5,0.1C201.7,158.7,201.7,158.8,201.7,159z"/>
			<path class="st6" d="M198.7,160.7v3c0,0.4-0.2,0.9-0.6,1l-0.6,0.4c-0.4,0.2-0.6,0-0.6-0.4v-3c0-0.4,0.2-0.9,0.6-1l0.6-0.4
				C198.5,160.2,198.7,160.3,198.7,160.7z"/>
			<path class="st6" d="M195.8,162.4v3c0,0.4-0.2,0.9-0.6,1l-0.6,0.4c-0.4,0.2-0.6,0-0.6-0.4v-2.8c0-0.4,0.2-0.7,0.6-1l0.6-0.4
				C195.4,161.9,195.8,162.1,195.8,162.4z"/>
			<path class="st1" d="M192.7,164.2v3c0,0.4-0.2,0.9-0.6,1l-0.6,0.4c-0.4,0.2-0.6,0-0.6-0.4v-3c0-0.4,0.2-0.7,0.6-1l0.6-0.4
				C192.4,163.7,192.7,163.8,192.7,164.2z"/>
			<path class="st6" d="M189.7,165.9v3c0,0.4-0.2,0.7-0.6,1l-0.7,0.4c-0.4,0.2-0.6,0-0.6-0.4v-3c0-0.4,0.2-0.7,0.6-1l0.7-0.4
				c0.1-0.1,0.4-0.1,0.5,0.1C189.7,165.6,189.7,165.8,189.7,165.9z"/>
			<path class="st1" d="M186.7,167.6v3c0,0.4-0.2,0.7-0.6,1l-0.6,0.4c-0.4,0.2-0.6,0-0.6-0.4v-3c0-0.4,0.2-0.9,0.6-1l0.6-0.4
				c0.1-0.1,0.4-0.1,0.5,0.1C186.7,167.4,186.7,167.5,186.7,167.6z"/>
			<path class="st1" d="M183.6,169.4v3c0,0.4-0.2,0.7-0.6,1l-0.6,0.4c-0.4,0.2-0.6,0-0.6-0.4v-3c0-0.4,0.2-0.9,0.6-1l0.6-0.4
				C183.4,168.9,183.6,169,183.6,169.4z"/>
			<path class="st1" d="M180.7,171.1v3c0,0.4-0.2,0.9-0.6,1l-0.6,0.4c-0.4,0.2-0.6,0-0.6-0.4v-2.8c0-0.4,0.2-0.9,0.6-1l0.6-0.4
				C180.4,170.6,180.7,170.7,180.7,171.1z"/>
			<path class="st6" d="M177.7,172.8v3c0,0.4-0.2,0.9-0.6,1l-0.6,0.4c-0.4,0.2-0.6,0-0.6-0.4v-3c0-0.4,0.2-0.7,0.6-1l0.6-0.4
				C177.4,172.3,177.7,172.5,177.7,172.8z"/>
			<path class="st1" d="M174.7,174.6v3c0,0.4-0.2,0.9-0.6,1l-0.6,0.4c-0.4,0.2-0.6,0-0.6-0.4v-3c0-0.4,0.2-0.7,0.6-1l0.6-0.4
				C174.3,174.1,174.7,174.2,174.7,174.6z"/>
			<path class="st1" d="M171.6,176.3v3c0,0.4-0.2,0.7-0.6,1l-0.7,0.4c-0.4,0.2-0.6,0-0.6-0.4v-3c0-0.4,0.2-0.7,0.6-1l0.7-0.4
				C171.4,175.8,171.6,175.9,171.6,176.3z"/>
			<path class="st5" d="M213.8,108.3l-44.2,25.5c-1.7,1.1-2.8,3.1-3,5.2v5.9c0,1.9,1.4,2.7,3,1.7l44.3-25.5c1.7-1.1,2.8-3.1,3-5.2
				v-6.1C216.9,108.1,215.6,107.3,213.8,108.3z"/>
			<path class="st6" d="M213.7,113.4v3c0,0.4-0.2,0.9-0.6,1l-0.6,0.4c-0.4,0.2-0.6,0-0.6-0.4v-3c0-0.4,0.2-0.7,0.6-1l0.6-0.4
				C213.5,112.8,213.7,113,213.7,113.4z"/>
			<path class="st1" d="M210.7,115.1v3c0,0.4-0.2,0.9-0.6,1l-0.6,0.4c-0.4,0.2-0.6,0-0.6-0.4v-3c0-0.4,0.2-0.7,0.6-1l0.6-0.4
				C210.5,114.5,210.7,114.7,210.7,115.1z"/>
			<path class="st6" d="M207.8,116.8v3c0,0.4-0.2,0.7-0.6,1l-0.7,0.4c-0.4,0.2-0.6,0-0.6-0.4v-3c0-0.4,0.2-0.7,0.6-1l0.7-0.4
				c0.1-0.1,0.4-0.1,0.5,0.1C207.8,116.6,207.8,116.7,207.8,116.8z"/>
			<path class="st6" d="M204.7,118.6v2.8c0,0.4-0.2,0.7-0.6,1l-0.6,0.4c-0.4,0.2-0.6,0-0.6-0.4v-3c0-0.4,0.2-0.9,0.6-1l0.6-0.4
				C204.4,118,204.7,118.2,204.7,118.6z"/>
			<path class="st6" d="M201.7,120.3v3c0,0.4-0.2,0.7-0.6,1l-0.6,0.4c-0.4,0.2-0.6,0-0.6-0.4v-3c0-0.4,0.2-0.9,0.6-1l0.6-0.4
				C201.5,119.7,201.7,119.9,201.7,120.3z"/>
			<path class="st1" d="M198.7,122.1v3c0,0.4-0.2,0.9-0.6,1l-0.6,0.4c-0.4,0.2-0.6,0-0.6-0.4v-3c0-0.4,0.2-0.9,0.6-1l0.6-0.4
				C198.5,121.4,198.7,121.7,198.7,122.1z"/>
			<path class="st1" d="M195.8,123.8v3c0,0.4-0.2,0.9-0.6,1l-0.6,0.4c-0.4,0.2-0.6,0-0.6-0.4v-3c0-0.4,0.2-0.7,0.6-1l0.6-0.4
				C195.4,123.2,195.8,123.4,195.8,123.8z"/>
			<path class="st6" d="M192.7,125.5v3c0,0.4-0.2,0.9-0.6,1l-0.6,0.4c-0.4,0.2-0.6,0-0.6-0.4v-3c0-0.4,0.2-0.7,0.6-1l0.6-0.4
				C192.4,124.9,192.7,125.1,192.7,125.5z"/>
			<path class="st1" d="M189.7,127.3v2.8c0,0.4-0.2,0.7-0.6,1l-0.7,0.4c-0.4,0.2-0.6,0-0.6-0.4v-3c0-0.4,0.2-0.7,0.6-1l0.7-0.4
				C189.4,126.6,189.7,126.9,189.7,127.3z"/>
			<path class="st6" d="M186.7,129v3c0,0.4-0.2,0.7-0.6,1l-0.6,0.4c-0.4,0.2-0.6,0-0.6-0.4v-3c0-0.4,0.2-0.9,0.6-1l0.6-0.4
				C186.5,128.4,186.7,128.6,186.7,129z"/>
			<path class="st6" d="M183.6,130.7v3c0,0.4-0.2,0.7-0.6,1l-0.6,0.4c-0.4,0.2-0.6,0-0.6-0.4v-3c0-0.4,0.2-0.9,0.6-1l0.6-0.4
				C183.4,130.1,183.6,130.3,183.6,130.7z"/>
			<path class="st6" d="M180.7,132.5v3c0,0.4-0.2,0.7-0.6,1l-0.6,0.4c-0.4,0.2-0.6,0-0.6-0.4v-3c0-0.4,0.2-0.9,0.6-1l0.6-0.4
				C180.4,131.8,180.7,132.1,180.7,132.5z"/>
			<path class="st1" d="M177.7,134.2v3c0,0.4-0.2,0.7-0.6,1l-0.6,0.4c-0.4,0.2-0.6,0-0.6-0.4v-3c0-0.4,0.2-0.7,0.6-1l0.6-0.4
				C177.4,133.6,177.7,133.8,177.7,134.2z"/>
			<path class="st6" d="M174.7,135.9v2.8c0,0.4-0.2,0.7-0.6,1l-0.6,0.4c-0.4,0.2-0.6,0-0.6-0.4v-3c0-0.4,0.2-0.7,0.6-1l0.6-0.4
				C174.3,135.3,174.7,135.5,174.7,135.9z"/>
			<path class="st6" d="M171.6,137.7v3c0,0.4-0.2,0.7-0.6,1l-0.7,0.4c-0.4,0.2-0.6,0-0.6-0.4v-3c0-0.4,0.2-0.7,0.6-1l0.7-0.4
				C171.4,137,171.6,137.3,171.6,137.7z"/>
			<path class="st1" d="M158.7,338.3l-1.4-0.7l0,0c-0.6-0.2-1.2-0.2-1.9,0.1c-1.5,1-2.5,2.6-2.6,4.5c-0.1,0.6,0.2,1.2,0.7,1.7l0,0
				l1.2,0.7l0.2-0.4c0.2,0,0.5-0.1,0.7-0.2c1.5-1,2.5-2.6,2.6-4.5c0-0.2,0-0.5-0.1-0.6L158.7,338.3z"/>
			<path class="st12" d="M158.7,338.3l-1.4-0.7l0,0c-0.6-0.2-1.2-0.2-1.9,0.1c-1.5,1-2.5,2.6-2.6,4.5c-0.1,0.6,0.2,1.2,0.7,1.7l0,0
				l1.2,0.7l0.2-0.4c0.2,0,0.5-0.1,0.7-0.2c1.5-1,2.5-2.6,2.6-4.5c0-0.2,0-0.5-0.1-0.6L158.7,338.3z"/>
			<path class="st1" d="M156.9,338.4c-1.5,1-2.5,2.7-2.6,4.5c0,1.6,1.1,2.4,2.6,1.5c1.5-1,2.5-2.6,2.6-4.5
				C159.5,338.3,158.2,337.5,156.9,338.4z"/>
			<path class="st11" d="M156.9,338.4c-1.5,1-2.5,2.7-2.6,4.5c0,1.6,1.1,2.4,2.6,1.5c1.5-1,2.5-2.6,2.6-4.5
				C159.5,338.3,158.2,337.5,156.9,338.4z"/>
			<path class="st1" d="M147.5,344.7l-1.4-0.7l0,0c-0.6-0.2-1.2-0.2-1.9,0.1c-1.5,1-2.5,2.7-2.6,4.5c-0.1,0.6,0.2,1.2,0.7,1.7l0,0
				l1.2,0.7l0.2-0.4c0.2,0,0.5-0.1,0.7-0.2c1.5-1,2.5-2.6,2.6-4.5c0-0.2,0-0.5-0.1-0.6L147.5,344.7z"/>
			<path class="st12" d="M147.5,344.7l-1.4-0.7l0,0c-0.6-0.2-1.2-0.2-1.9,0.1c-1.5,1-2.5,2.7-2.6,4.5c-0.1,0.6,0.2,1.2,0.7,1.7l0,0
				l1.2,0.7l0.2-0.4c0.2,0,0.5-0.1,0.7-0.2c1.5-1,2.5-2.6,2.6-4.5c0-0.2,0-0.5-0.1-0.6L147.5,344.7z"/>
			<path class="st1" d="M145.6,345c-1.5,1-2.5,2.7-2.6,4.5c0,1.6,1.1,2.4,2.6,1.5c1.5-1,2.5-2.6,2.6-4.5
				C148.2,344.7,147.1,344.1,145.6,345z"/>
			<path class="st11" d="M145.6,345c-1.5,1-2.5,2.7-2.6,4.5c0,1.6,1.1,2.4,2.6,1.5c1.5-1,2.5-2.6,2.6-4.5
				C148.2,344.7,147.1,344.1,145.6,345z"/>
			<path class="st1" d="M158.7,299.6l-1.4-0.7l0,0c-0.6-0.2-1.2-0.2-1.9,0.1c-1.5,1-2.5,2.6-2.6,4.5c-0.1,0.6,0.2,1.2,0.7,1.7l0,0
				l1.2,0.7l0.2-0.4c0.2,0,0.5-0.1,0.7-0.2c1.5-1,2.5-2.7,2.6-4.5c0-0.2,0-0.5-0.1-0.6L158.7,299.6z"/>
			<path class="st12" d="M158.7,299.6l-1.4-0.7l0,0c-0.6-0.2-1.2-0.2-1.9,0.1c-1.5,1-2.5,2.6-2.6,4.5c-0.1,0.6,0.2,1.2,0.7,1.7l0,0
				l1.2,0.7l0.2-0.4c0.2,0,0.5-0.1,0.7-0.2c1.5-1,2.5-2.7,2.6-4.5c0-0.2,0-0.5-0.1-0.6L158.7,299.6z"/>
			<path class="st1" d="M156.9,299.8c-1.5,1-2.5,2.7-2.6,4.5c0,1.6,1.1,2.4,2.6,1.5c1.5-1,2.5-2.6,2.6-4.5
				C159.5,299.6,158.2,298.9,156.9,299.8z"/>
			<path class="st11" d="M156.9,299.8c-1.5,1-2.5,2.7-2.6,4.5c0,1.6,1.1,2.4,2.6,1.5c1.5-1,2.5-2.6,2.6-4.5
				C159.5,299.6,158.2,298.9,156.9,299.8z"/>
			<path class="st1" d="M147.5,306.1l-1.4-0.7l0,0c-0.6-0.2-1.2-0.2-1.9,0.1c-1.5,1-2.5,2.7-2.6,4.5c-0.1,0.6,0.2,1.2,0.7,1.7l0,0
				l1.2,0.7l0.2-0.4c0.2,0,0.5-0.1,0.7-0.2c1.5-1,2.5-2.6,2.6-4.5c0-0.2,0-0.5-0.1-0.6L147.5,306.1z"/>
			<path class="st12" d="M147.5,306.1l-1.4-0.7l0,0c-0.6-0.2-1.2-0.2-1.9,0.1c-1.5,1-2.5,2.7-2.6,4.5c-0.1,0.6,0.2,1.2,0.7,1.7l0,0
				l1.2,0.7l0.2-0.4c0.2,0,0.5-0.1,0.7-0.2c1.5-1,2.5-2.6,2.6-4.5c0-0.2,0-0.5-0.1-0.6L147.5,306.1z"/>
			<path class="st1" d="M145.6,306.2c-1.5,1-2.5,2.7-2.6,4.5c0,1.6,1.1,2.4,2.6,1.5c1.5-1,2.5-2.7,2.6-4.5
				C148.2,306.1,147.1,305.5,145.6,306.2z"/>
			<path class="st11" d="M145.6,306.2c-1.5,1-2.5,2.7-2.6,4.5c0,1.6,1.1,2.4,2.6,1.5c1.5-1,2.5-2.7,2.6-4.5
				C148.2,306.1,147.1,305.5,145.6,306.2z"/>
			<path class="st1" d="M158.7,260.9l-1.4-0.7l0,0c-0.6-0.2-1.2-0.2-1.9,0.1c-1.5,1-2.5,2.6-2.6,4.5c-0.1,0.6,0.2,1.2,0.7,1.7l0,0
				l1.2,0.7l0.2-0.4c0.2,0,0.5-0.1,0.7-0.2c1.5-1,2.5-2.7,2.6-4.5c0-0.2,0-0.5-0.1-0.6L158.7,260.9z"/>
			<path class="st12" d="M158.7,260.9l-1.4-0.7l0,0c-0.6-0.2-1.2-0.2-1.9,0.1c-1.5,1-2.5,2.6-2.6,4.5c-0.1,0.6,0.2,1.2,0.7,1.7l0,0
				l1.2,0.7l0.2-0.4c0.2,0,0.5-0.1,0.7-0.2c1.5-1,2.5-2.7,2.6-4.5c0-0.2,0-0.5-0.1-0.6L158.7,260.9z"/>
			<path class="st1" d="M156.9,261.1c-1.5,1-2.5,2.7-2.6,4.5c0,1.6,1.1,2.4,2.6,1.5c1.5-1,2.5-2.6,2.6-4.5
				C159.5,260.9,158.2,260.3,156.9,261.1z"/>
			<path class="st11" d="M156.9,261.1c-1.5,1-2.5,2.7-2.6,4.5c0,1.6,1.1,2.4,2.6,1.5c1.5-1,2.5-2.6,2.6-4.5
				C159.5,260.9,158.2,260.3,156.9,261.1z"/>
			<path class="st1" d="M147.5,267.4l-1.4-0.7l0,0c-0.6-0.2-1.2-0.2-1.9,0.1c-1.5,1-2.5,2.6-2.6,4.5c-0.1,0.6,0.2,1.2,0.7,1.7l0,0
				l1.2,0.7l0.2-0.4c0.2,0,0.5-0.1,0.7-0.2c1.5-1,2.5-2.6,2.6-4.5c0-0.2,0-0.5-0.1-0.6L147.5,267.4z"/>
			<path class="st12" d="M147.5,267.4l-1.4-0.7l0,0c-0.6-0.2-1.2-0.2-1.9,0.1c-1.5,1-2.5,2.6-2.6,4.5c-0.1,0.6,0.2,1.2,0.7,1.7l0,0
				l1.2,0.7l0.2-0.4c0.2,0,0.5-0.1,0.7-0.2c1.5-1,2.5-2.6,2.6-4.5c0-0.2,0-0.5-0.1-0.6L147.5,267.4z"/>
			<path class="st1" d="M145.6,267.6c-1.5,1-2.5,2.7-2.6,4.5c0,1.6,1.1,2.4,2.6,1.5c1.5-1,2.5-2.7,2.6-4.5
				C148.2,267.4,147.1,266.7,145.6,267.6z"/>
			<path class="st11" d="M145.6,267.6c-1.5,1-2.5,2.7-2.6,4.5c0,1.6,1.1,2.4,2.6,1.5c1.5-1,2.5-2.7,2.6-4.5
				C148.2,267.4,147.1,266.7,145.6,267.6z"/>
			<path class="st1" d="M158.7,222.2l-1.4-0.7l0,0c-0.6-0.2-1.2-0.2-1.9,0.1c-1.5,1-2.5,2.6-2.6,4.5c-0.1,0.6,0.2,1.2,0.7,1.7l0,0
				l1.2,0.7l0.2-0.4c0.2,0,0.5-0.1,0.7-0.2c1.5-1,2.5-2.7,2.6-4.5c0-0.2,0-0.5-0.1-0.6L158.7,222.2z"/>
			<path class="st12" d="M158.7,222.2l-1.4-0.7l0,0c-0.6-0.2-1.2-0.2-1.9,0.1c-1.5,1-2.5,2.6-2.6,4.5c-0.1,0.6,0.2,1.2,0.7,1.7l0,0
				l1.2,0.7l0.2-0.4c0.2,0,0.5-0.1,0.7-0.2c1.5-1,2.5-2.7,2.6-4.5c0-0.2,0-0.5-0.1-0.6L158.7,222.2z"/>
			<path class="st1" d="M156.9,222.4c-1.5,1-2.5,2.7-2.6,4.5c0,1.6,1.1,2.4,2.6,1.5c1.5-1,2.5-2.6,2.6-4.5
				C159.5,222.2,158.2,221.6,156.9,222.4z"/>
			<path class="st11" d="M156.9,222.4c-1.5,1-2.5,2.7-2.6,4.5c0,1.6,1.1,2.4,2.6,1.5c1.5-1,2.5-2.6,2.6-4.5
				C159.5,222.2,158.2,221.6,156.9,222.4z"/>
			<path class="st1" d="M147.5,228.7l-1.4-0.7l0,0c-0.6-0.2-1.2-0.2-1.9,0.1c-1.5,1-2.5,2.6-2.6,4.5c-0.1,0.6,0.2,1.2,0.7,1.7l0,0
				l1.2,0.7l0.2-0.4c0.2,0,0.5-0.1,0.7-0.2c1.5-1,2.5-2.6,2.6-4.5c0-0.2,0-0.5-0.1-0.6L147.5,228.7z"/>
			<path class="st12" d="M147.5,228.7l-1.4-0.7l0,0c-0.6-0.2-1.2-0.2-1.9,0.1c-1.5,1-2.5,2.6-2.6,4.5c-0.1,0.6,0.2,1.2,0.7,1.7l0,0
				l1.2,0.7l0.2-0.4c0.2,0,0.5-0.1,0.7-0.2c1.5-1,2.5-2.6,2.6-4.5c0-0.2,0-0.5-0.1-0.6L147.5,228.7z"/>
			<path class="st1" d="M145.6,228.9c-1.5,1-2.5,2.6-2.6,4.5c0,1.6,1.1,2.4,2.6,1.5c1.5-1,2.5-2.6,2.6-4.5
				C148.2,228.7,147.1,228.1,145.6,228.9z"/>
			<path class="st11" d="M145.6,228.9c-1.5,1-2.5,2.6-2.6,4.5c0,1.6,1.1,2.4,2.6,1.5c1.5-1,2.5-2.6,2.6-4.5
				C148.2,228.7,147.1,228.1,145.6,228.9z"/>
			<path class="st1" d="M158.7,183.5l-1.4-0.7l0,0c-0.6-0.2-1.2-0.2-1.9,0.1c-1.5,1-2.5,2.6-2.6,4.5c-0.1,0.6,0.2,1.2,0.7,1.7l0,0
				l1.2,0.7l0.2-0.4c0.2-0.1,0.5-0.1,0.7-0.2c1.5-1,2.5-2.6,2.6-4.5c0-0.2,0-0.5-0.1-0.6L158.7,183.5z"/>
			<path class="st12" d="M158.7,183.5l-1.4-0.7l0,0c-0.6-0.2-1.2-0.2-1.9,0.1c-1.5,1-2.5,2.6-2.6,4.5c-0.1,0.6,0.2,1.2,0.7,1.7l0,0
				l1.2,0.7l0.2-0.4c0.2-0.1,0.5-0.1,0.7-0.2c1.5-1,2.5-2.6,2.6-4.5c0-0.2,0-0.5-0.1-0.6L158.7,183.5z"/>
			<path class="st1" d="M156.9,183.6c-1.5,1-2.5,2.6-2.6,4.5c0,1.6,1.1,2.4,2.6,1.5c1.5-1,2.5-2.6,2.6-4.5
				C159.5,183.5,158.2,182.9,156.9,183.6z"/>
			<path class="st11" d="M156.9,183.6c-1.5,1-2.5,2.6-2.6,4.5c0,1.6,1.1,2.4,2.6,1.5c1.5-1,2.5-2.6,2.6-4.5
				C159.5,183.5,158.2,182.9,156.9,183.6z"/>
			<path class="st1" d="M147.5,190l-1.4-0.7l0,0c-0.6-0.2-1.2-0.2-1.9,0.1c-1.5,1-2.5,2.7-2.6,4.5c-0.1,0.6,0.2,1.2,0.7,1.7l0,0
				l1.2,0.7l0.2-0.4c0.2,0,0.5-0.1,0.7-0.2c1.5-1,2.5-2.6,2.6-4.5c0-0.2,0-0.5-0.1-0.6L147.5,190z"/>
			<path class="st12" d="M147.5,190l-1.4-0.7l0,0c-0.6-0.2-1.2-0.2-1.9,0.1c-1.5,1-2.5,2.7-2.6,4.5c-0.1,0.6,0.2,1.2,0.7,1.7l0,0
				l1.2,0.7l0.2-0.4c0.2,0,0.5-0.1,0.7-0.2c1.5-1,2.5-2.6,2.6-4.5c0-0.2,0-0.5-0.1-0.6L147.5,190z"/>
			<path class="st1" d="M145.6,190.2c-1.5,1-2.5,2.6-2.6,4.5c0,1.6,1.1,2.4,2.6,1.5c1.5-1,2.5-2.6,2.6-4.5
				C148.2,190,147.1,189.3,145.6,190.2z"/>
			<path class="st11" d="M145.6,190.2c-1.5,1-2.5,2.6-2.6,4.5c0,1.6,1.1,2.4,2.6,1.5c1.5-1,2.5-2.6,2.6-4.5
				C148.2,190,147.1,189.3,145.6,190.2z"/>
			<path class="st1" d="M158.7,144.8l-1.4-0.7l0,0c-0.6-0.2-1.2-0.2-1.9,0.1c-1.5,1-2.5,2.6-2.6,4.5c-0.1,0.6,0.2,1.2,0.7,1.7l0,0
				l1.2,0.7l0.2-0.4c0.2-0.1,0.5-0.1,0.7-0.2c1.5-1,2.5-2.6,2.6-4.5c0-0.2,0-0.5-0.1-0.6L158.7,144.8z"/>
			<path class="st12" d="M158.7,144.8l-1.4-0.7l0,0c-0.6-0.2-1.2-0.2-1.9,0.1c-1.5,1-2.5,2.6-2.6,4.5c-0.1,0.6,0.2,1.2,0.7,1.7l0,0
				l1.2,0.7l0.2-0.4c0.2-0.1,0.5-0.1,0.7-0.2c1.5-1,2.5-2.6,2.6-4.5c0-0.2,0-0.5-0.1-0.6L158.7,144.8z"/>
			<path class="st1" d="M156.9,145c-1.5,1-2.5,2.6-2.6,4.5c0,1.6,1.1,2.4,2.6,1.5c1.5-1,2.5-2.6,2.6-4.5
				C159.5,144.8,158.2,144.2,156.9,145z"/>
			<path class="st11" d="M156.9,145c-1.5,1-2.5,2.6-2.6,4.5c0,1.6,1.1,2.4,2.6,1.5c1.5-1,2.5-2.6,2.6-4.5
				C159.5,144.8,158.2,144.2,156.9,145z"/>
			<path class="st1" d="M147.5,151.3l-1.4-0.7l0,0c-0.6-0.2-1.2-0.2-1.9,0.1c-1.5,1-2.5,2.7-2.6,4.5c-0.1,0.6,0.2,1.2,0.7,1.7l0,0
				l1.2,0.7l0.2-0.4c0.2,0,0.5-0.1,0.7-0.2c1.5-1,2.5-2.6,2.6-4.5c0-0.2,0-0.5-0.1-0.6L147.5,151.3z"/>
			<path class="st12" d="M147.5,151.3l-1.4-0.7l0,0c-0.6-0.2-1.2-0.2-1.9,0.1c-1.5,1-2.5,2.7-2.6,4.5c-0.1,0.6,0.2,1.2,0.7,1.7l0,0
				l1.2,0.7l0.2-0.4c0.2,0,0.5-0.1,0.7-0.2c1.5-1,2.5-2.6,2.6-4.5c0-0.2,0-0.5-0.1-0.6L147.5,151.3z"/>
			<path class="st1" d="M145.6,151.5c-1.5,1-2.5,2.6-2.6,4.5c0,1.6,1.1,2.4,2.6,1.5c1.5-1,2.5-2.6,2.6-4.5
				C148.2,151.3,147.1,150.7,145.6,151.5z"/>
			<path class="st11" d="M145.6,151.5c-1.5,1-2.5,2.6-2.6,4.5c0,1.6,1.1,2.4,2.6,1.5c1.5-1,2.5-2.6,2.6-4.5
				C148.2,151.3,147.1,150.7,145.6,151.5z"/>
			<path class="st5" d="M73.2,233.9l50.9,29.4c1,0.6,1.6,1.7,1.6,2.8v14.1c0,1.1-0.7,1.5-1.6,1l-50.9-29.4c-1-0.6-1.6-1.7-1.6-2.8
				v-14C71.4,233.8,72.2,233.4,73.2,233.9z"/>
			<path class="st1" d="M74.5,240.1c0.1,1.1,0.7,2.1,1.6,2.7l44.7,25.8c0.9,0.5,1.6,0.1,1.6-0.9c-0.1-1.1-0.7-2.1-1.6-2.7
				l-44.7-25.8C75.3,238.7,74.5,239.1,74.5,240.1z"/>
			<path class="st13" d="M74.5,247.3c0.1,1.1,0.7,2.1,1.6,2.7l44.7,25.8c0.9,0.5,1.6,0.1,1.6-0.9c-0.1-1.1-0.7-2.1-1.6-2.7
				l-44.7-25.8C75.3,245.9,74.5,246.3,74.5,247.3z"/>
			<path class="st1" d="M76.3,246.4l24.6,14.2v3.6L76.3,250c-1-0.6-1.6-1.6-1.6-2.7C74.5,246.3,75.3,245.9,76.3,246.4z"/>
			<path class="st5" d="M73.2,272.6l50.9,29.4c1,0.6,1.6,1.7,1.6,2.8V319c0,1.1-0.7,1.5-1.6,1l-50.9-29.4c-1-0.6-1.6-1.7-1.6-2.8
				v-14.1C71.4,272.5,72.2,272.2,73.2,272.6z"/>
			<path class="st1" d="M74.5,278.8c0.1,1.1,0.7,2.1,1.6,2.7l44.7,25.8c0.9,0.5,1.6,0.1,1.6-0.9c-0.1-1.1-0.7-2.1-1.6-2.7L76.1,278
				C75.3,277.5,74.5,277.9,74.5,278.8z"/>
			<path class="st13" d="M74.5,286c0.1,1.1,0.7,2.1,1.6,2.7l44.7,25.8c0.9,0.5,1.6,0.1,1.6-0.9c-0.1-1.1-0.7-2.1-1.6-2.7l-44.7-25.8
				C75.3,284.7,74.5,285,74.5,286z"/>
			<path class="st1" d="M76.3,285.2l30.8,17.8v3.6l-30.8-17.8c-1-0.6-1.6-1.6-1.6-2.7C74.5,285,75.3,284.7,76.3,285.2z"/>
			<path class="st5" d="M73.2,311.2l50.9,29.4c1,0.6,1.6,1.7,1.6,2.8v14.1c0,1.1-0.7,1.5-1.6,1l-50.9-29.4c-1-0.6-1.6-1.7-1.6-2.8
				v-14.1C71.4,311,72.2,310.5,73.2,311.2z"/>
			<path class="st1" d="M74.5,317.4c0.1,1.1,0.7,2.1,1.6,2.7l44.7,25.8c0.9,0.5,1.6,0.1,1.6-0.9c-0.1-1.1-0.7-2.1-1.6-2.7
				l-44.7-25.8C75.3,316,74.5,316.4,74.5,317.4z"/>
			<path class="st13" d="M74.5,324.4c0.1,1.1,0.7,2.1,1.6,2.7l44.7,25.9c0.9,0.5,1.6,0.1,1.6-0.9c-0.1-1.1-0.7-2.1-1.6-2.7
				l-44.7-25.9C75.3,323.1,74.5,323.4,74.5,324.4z"/>
			<path class="st1" d="M76.3,323.7l37,21.4v3.6l-37-21.4c-1-0.6-1.6-1.6-1.6-2.7C74.5,323.4,75.3,323.1,76.3,323.7z"/>
			<path class="st5" d="M73.2,195.5l50.9,29.4c1,0.6,1.6,1.7,1.6,2.8v14.1c0,1.1-0.7,1.5-1.6,1l-50.9-29.4c-1-0.6-1.6-1.7-1.6-2.8
				v-14C71.4,195.4,72.2,195,73.2,195.5z"/>
			<path class="st1" d="M74.5,201.7c0.1,1.1,0.7,2.1,1.6,2.7l44.7,25.8c0.9,0.5,1.6,0.1,1.6-0.9c-0.1-1.1-0.7-2.1-1.6-2.7
				l-44.7-25.8C75.3,200.3,74.5,200.7,74.5,201.7z"/>
			<path class="st13" d="M74.5,208.9c0.1,1.1,0.7,2.1,1.6,2.7l44.7,25.8c0.9,0.5,1.6,0.1,1.6-0.9c-0.1-1.1-0.7-2.1-1.6-2.7L76.1,208
				C75.3,207.5,74.5,207.9,74.5,208.9z"/>
			<path class="st1" d="M76.3,208l40.1,23.2v3.6l-40.1-23.2c-1-0.6-1.6-1.6-1.6-2.7C74.5,207.9,75.3,207.5,76.3,208z"/>
			<path class="st5" d="M73.2,118.1l50.9,29.4c1,0.6,1.6,1.7,1.6,2.8v14.1c0,1.1-0.7,1.5-1.6,1L73.2,136c-1-0.6-1.6-1.7-1.6-2.8V119
				C71.4,118,72.2,117.6,73.2,118.1z"/>
			<path class="st1" d="M74.5,124.3c0.1,1.1,0.7,2.1,1.6,2.7l44.7,25.8c0.9,0.5,1.6,0.1,1.6-0.9c-0.1-1.1-0.7-2.1-1.6-2.7
				l-44.7-25.8C75.3,122.9,74.5,123.3,74.5,124.3z"/>
			<path class="st13" d="M74.5,131.3c0.1,1.1,0.7,2.1,1.6,2.7l44.7,25.8c0.9,0.5,1.6,0.1,1.6-0.9c-0.1-1.1-0.7-2.1-1.6-2.7
				l-44.7-25.8C75.3,130,74.5,130.3,74.5,131.3z"/>
			<path class="st1" d="M76.3,130.6l30.8,17.8v3.6l-30.8-17.8c-1-0.6-1.6-1.6-1.6-2.7C74.5,130.3,75.3,130,76.3,130.6z"/>
			<path class="st5" d="M73.2,156.7l50.9,29.4c1,0.6,1.6,1.7,1.6,2.8V203c0,1.1-0.7,1.5-1.6,1l-50.9-29.4c-1-0.6-1.6-1.7-1.6-2.8
				v-14C71.4,156.6,72.2,156.2,73.2,156.7z"/>
			<path class="st1" d="M74.5,162.9c0.1,1.1,0.7,2.1,1.6,2.7l44.7,25.8c0.9,0.5,1.6,0.1,1.6-0.9c-0.1-1.1-0.7-2.1-1.6-2.7
				l-44.7-25.8C75.3,161.6,74.5,161.9,74.5,162.9z"/>
			<path class="st13" d="M74.5,170.1c0.1,1.1,0.7,2.1,1.6,2.7l44.7,25.8c0.9,0.5,1.6,0.1,1.6-0.9c-0.1-1.1-0.7-2.1-1.6-2.7
				l-44.7-25.8C75.3,168.7,74.5,169.1,74.5,170.1z"/>
			<path class="st1" d="M76.3,169.2l40.1,23.2v3.6l-40.1-23.2c-1-0.6-1.6-1.6-1.6-2.7C74.5,169.1,75.3,168.7,76.3,169.2z"/>
			<path class="st1" d="M135.2,131.7L195,97.2c0.9-0.6,1.5-1.6,1.5-2.7v-2c0-1.1-0.6-2.1-1.5-2.7l-59.8-34.6c-1-0.5-2.1-0.5-3.1,0
				L72.4,89.7c-0.9,0.6-1.5,1.6-1.5,2.7v2c0,1.1,0.6,2.1,1.5,2.7l59.8,34.6C133.2,132.2,134.3,132.2,135.2,131.7z"/>
			<path class="st14" d="M135.2,131.7L195,97.2c0.9-0.6,1.5-1.6,1.5-2.7v-2c0-1.1-0.6-2.1-1.5-2.7l-59.8-34.6c-1-0.5-2.1-0.5-3.1,0
				L72.4,89.7c-0.9,0.6-1.5,1.6-1.5,2.7v2c0,1.1,0.6,2.1,1.5,2.7l59.8,34.6C133.2,132.2,134.3,132.2,135.2,131.7z"/>
			<path class="st1" d="M195,91.6l-59.8,34.6c-1,0.5-2.1,0.5-3.1,0L72.4,91.6c-0.5-0.1-0.7-0.7-0.6-1.2c0.1-0.2,0.2-0.5,0.6-0.6
				l59.8-34.6c1-0.5,2.1-0.5,3.1,0L195,89.7c0.5,0.1,0.7,0.7,0.6,1.2C195.5,91.2,195.3,91.5,195,91.6z"/>
			<path class="st1" d="M133.7,126.5v5.6c0.5,0,1.1-0.1,1.6-0.4l59.8-34.6c0.9-0.6,1.5-1.6,1.5-2.7v-2c0-1-0.5-1.9-1.2-2.5
				c0.5,0.5,0.5,1.1-0.2,1.6l-59.8,34.6C134.8,126.4,134.2,126.5,133.7,126.5z"/>
			<path class="st11" d="M133.7,126.5v5.6c0.5,0,1.1-0.1,1.6-0.4l59.8-34.6c0.9-0.6,1.5-1.6,1.5-2.7v-2c0-1-0.5-1.9-1.2-2.5
				c0.5,0.5,0.5,1.1-0.2,1.6l-59.8,34.6C134.8,126.4,134.2,126.5,133.7,126.5z"/>
			<path class="st13" d="M135.2,114.9l40.5-23.4c0.9-0.6,1.5-1.6,1.5-2.7v-2c0-1.1-0.6-2.1-1.5-2.7l-25.9-15c-1-0.6-1.9-1.4-2.6-2.4
				L134.8,50c-0.6-0.7-1.7-1-2.6-0.5L91.7,72.8c-0.9,0.6-1.5,1.6-1.5,2.7v13.3c0,1.1,0.6,2.1,1.5,2.7l40.5,23.4
				C133.1,115.4,134.3,115.4,135.2,114.9z"/>
			<path class="st5" d="M132.1,109.3l-25.9-15c-1-0.6-1.9-1.4-2.6-2.4L91.2,75.2c-0.5-0.6-0.4-1.6,0.2-2.2c0.1,0,0.1-0.1,0.2-0.1
				l40.5-23.3c0.9-0.5,2-0.2,2.6,0.5l12.4,16.7c0.6,1,1.5,1.9,2.4,2.5l26.1,14.9c0.5,0.1,0.7,0.7,0.6,1.2c-0.1,0.2-0.4,0.5-0.6,0.6
				l-40.5,23.4C134.3,109.9,133.1,109.8,132.1,109.3z"/>
			<path class="st6" d="M91.7,73l40.5-23.3c0.9-0.5,2-0.2,2.6,0.5l12.4,16.7c0.4,0.5,0.7,1,1.2,1.4l-43.6,25.1
				c-0.5-0.4-0.9-0.9-1.2-1.4L91.2,75.4c-0.5-0.6-0.4-1.6,0.2-2.2C91.6,73.1,91.6,73,91.7,73z"/>
			<path class="st1" d="M165.9,84.6c-1.1-0.6-2.5-0.6-3.6,0c-0.6,0.2-0.9,0.9-0.7,1.4c0.1,0.4,0.4,0.6,0.7,0.7
				c1.1,0.6,2.5,0.6,3.6,0c0.6-0.2,0.9-0.9,0.7-1.4C166.4,85,166.2,84.6,165.9,84.6z"/>
			<path class="st1" d="M158.6,88.7c-1.1-0.6-2.5-0.6-3.6,0c-0.6,0.2-0.9,0.9-0.7,1.4c0.1,0.4,0.4,0.6,0.7,0.7
				c1.1,0.6,2.5,0.6,3.6,0c0.6-0.2,0.9-0.9,0.7-1.4C159.2,89.1,159,88.9,158.6,88.7z"/>
			<path class="st13" d="M151.4,92.9c-1.1-0.6-2.5-0.6-3.6,0c-0.6,0.2-0.9,0.9-0.7,1.4c0.1,0.4,0.4,0.6,0.7,0.7
				c1.1,0.6,2.5,0.6,3.6,0c0.6-0.2,0.9-0.9,0.7-1.4C151.9,93.3,151.7,93.1,151.4,92.9z"/>
			<path class="st13" d="M144.1,97.2c-1.1-0.6-2.5-0.6-3.6,0c-0.6,0.2-0.9,0.9-0.7,1.4c0.1,0.4,0.4,0.6,0.7,0.7
				c1.1,0.6,2.5,0.6,3.6,0c0.6-0.2,0.9-0.9,0.7-1.4C144.7,97.5,144.5,97.3,144.1,97.2z"/>
			<path class="st1" d="M160.5,81.4c-1.1-0.6-2.5-0.6-3.6,0c-0.6,0.2-0.9,0.9-0.7,1.4c0.1,0.4,0.4,0.6,0.7,0.7
				c1.1,0.6,2.5,0.6,3.6,0c0.6-0.2,0.9-0.9,0.7-1.4C161.1,81.8,160.7,81.6,160.5,81.4z"/>
			<path class="st13" d="M153.2,85.6c-1.1-0.6-2.5-0.6-3.6,0c-0.6,0.2-0.9,0.9-0.7,1.4c0.1,0.4,0.4,0.6,0.7,0.7
				c1.1,0.6,2.5,0.6,3.6,0c0.6-0.2,0.9-0.9,0.7-1.4C153.8,86,153.5,85.8,153.2,85.6z"/>
			<ellipse class="st1" cx="144.1" cy="90.8" rx="2.6" ry="1.5"/>
			<path class="st13" d="M138.7,94.1c-1.1-0.6-2.5-0.6-3.6,0c-0.6,0.2-0.9,0.9-0.7,1.4c0.1,0.4,0.4,0.6,0.7,0.7
				c1.1,0.6,2.5,0.6,3.6,0c0.6-0.2,0.9-0.9,0.7-1.4C139.3,94.4,139,94.2,138.7,94.1z"/>
			<path class="st13" d="M155,78.3c-1.1-0.6-2.5-0.6-3.6,0c-0.6,0.2-0.9,0.9-0.7,1.4c0.1,0.4,0.4,0.6,0.7,0.7c1.1,0.6,2.5,0.6,3.6,0
				c0.6-0.2,0.9-0.9,0.7-1.4C155.6,78.7,155.3,78.5,155,78.3z"/>
			<path class="st1" d="M147.7,82.5c-1.1-0.6-2.5-0.6-3.6,0c-0.6,0.2-0.9,0.9-0.7,1.4c0.1,0.4,0.4,0.6,0.7,0.7
				c1.1,0.6,2.5,0.6,3.6,0c0.6-0.2,0.9-0.9,0.7-1.4C148.3,82.9,148.1,82.7,147.7,82.5z"/>
			<path class="st13" d="M140.5,86.8c-1.1-0.6-2.5-0.6-3.6,0c-0.6,0.2-0.9,0.9-0.7,1.4c0.1,0.4,0.4,0.6,0.7,0.7
				c1.1,0.6,2.5,0.6,3.6,0c0.6-0.2,0.9-0.9,0.7-1.4C141.1,87.1,140.9,86.9,140.5,86.8z"/>
			<path class="st1" d="M136.8,101.2c-1.1-0.6-2.5-0.6-3.6,0c-0.6,0.2-0.9,0.9-0.7,1.4c0.1,0.4,0.4,0.6,0.7,0.7
				c1.1,0.6,2.5,0.6,3.6,0c0.6-0.2,0.9-0.9,0.7-1.4C137.4,101.6,137.2,101.4,136.8,101.2z"/>
			<path class="st13" d="M131.4,98.1c-1.1-0.6-2.5-0.6-3.6,0c-0.6,0.2-0.9,0.9-0.7,1.4c0.1,0.4,0.4,0.6,0.7,0.7
				c1.1,0.6,2.5,0.6,3.6,0c0.6-0.2,0.9-0.9,0.7-1.4C132,98.5,131.7,98.3,131.4,98.1z"/>
			<path class="st13" d="M133.2,90.8c-1.1-0.6-2.5-0.6-3.6,0c-0.6,0.2-0.9,0.9-0.6,1.5c0.1,0.2,0.4,0.5,0.6,0.6
				c1.1,0.6,2.5,0.6,3.6,0c0.6-0.2,0.9-0.9,0.7-1.4C133.8,91.2,133.6,91,133.2,90.8z"/>
			<path class="st1" d="M149.6,75.2c-1.1-0.6-2.5-0.6-3.6,0c-0.6,0.2-0.9,0.9-0.7,1.4c0.1,0.4,0.4,0.6,0.7,0.7
				c1.1,0.6,2.5,0.6,3.6,0c0.6-0.2,0.9-0.9,0.7-1.4C150.2,75.5,149.8,75.2,149.6,75.2z"/>
			<path class="st13" d="M142.3,79.3c-1.1-0.6-2.5-0.6-3.6,0c-0.6,0.2-0.9,0.9-0.7,1.4c0.1,0.4,0.4,0.6,0.7,0.7
				c1.1,0.6,2.5,0.6,3.6,0c0.6-0.2,0.9-0.9,0.7-1.4C142.9,79.7,142.6,79.4,142.3,79.3z"/>
			<path class="st1" d="M135.1,83.5c-1.1-0.6-2.5-0.6-3.6,0c-0.6,0.2-0.9,0.9-0.7,1.4c0.1,0.4,0.4,0.6,0.7,0.7
				c1.1,0.6,2.5,0.6,3.6,0c0.6-0.2,0.9-0.9,0.7-1.4C135.6,83.9,135.3,83.7,135.1,83.5z"/>
			<ellipse class="st13" cx="125.9" cy="88.7" rx="2.6" ry="1.5"/>
			<path class="st1" d="M125.9,94.9c-1.1-0.6-2.5-0.6-3.6,0c-0.6,0.2-0.9,0.9-0.7,1.4c0.1,0.4,0.4,0.6,0.7,0.7
				c1.1,0.6,2.5,0.6,3.6,0c0.6-0.2,0.9-0.9,0.7-1.4C126.5,95.3,126.3,95.1,125.9,94.9z"/>
			<path class="st13" d="M120.5,91.8c-1.1-0.6-2.5-0.6-3.6,0c-0.6,0.2-0.9,0.9-0.7,1.4c0.1,0.4,0.4,0.6,0.7,0.7
				c1.1,0.6,2.5,0.6,3.6,0c0.6-0.2,0.9-0.9,0.7-1.4C121.1,92.2,120.8,92,120.5,91.8z"/>
			<path class="st6" d="M133.6,109.7v5.6c0.6,0,1.1-0.1,1.6-0.4l40.5-23.4c0.9-0.6,1.5-1.6,1.5-2.7v-2c0-1-0.5-1.9-1.2-2.5
				c0.6,0.5,0.5,1.1-0.2,1.6l-40.5,23.4C134.8,109.5,134.2,109.7,133.6,109.7z"/>
			<path class="st13" d="M141.8,66.2L141.8,66.2c-0.4-0.5-1.1-0.7-1.7-0.4l-35.2,20.3c-0.5,0.2-0.7,0.9-0.4,1.4l0.1,0.1l0,0
				c0.4,0.5,1.1,0.6,1.7,0.4l35.2-20.3c0.5-0.2,0.7-0.9,0.4-1.4C141.9,66.3,141.8,66.2,141.8,66.2z"/>
			<path class="st1" d="M141.8,66.2L141.8,66.2c-0.4-0.5-1.1-0.7-1.7-0.4l-26.1,15.1l1.5,2l26.1-15.1c0.5-0.2,0.7-0.9,0.4-1.4
				C141.9,66.3,141.8,66.2,141.8,66.2z"/>
			<path class="st13" d="M138.9,62.2L138.9,62.2c-0.4-0.5-1.1-0.7-1.7-0.4L102,82.2c-0.5,0.2-0.7,0.9-0.4,1.4c0,0,0,0.1,0.1,0.1l0,0
				c0.4,0.5,1.1,0.6,1.7,0.4l35.2-20.3c0.5-0.2,0.7-0.9,0.4-1.4C138.9,62.4,138.9,62.4,138.9,62.2z"/>
			<path class="st1" d="M138.9,62.2L138.9,62.2c-0.4-0.5-1.1-0.7-1.7-0.4l-8.8,5.1l1.5,2l8.8-5.1c0.5-0.2,0.7-0.9,0.4-1.4
				C138.9,62.4,138.9,62.4,138.9,62.2z"/>
			<path class="st13" d="M135.9,58.4L135.9,58.4c-0.4-0.5-1.1-0.6-1.7-0.4L99,78.3c-0.5,0.2-0.7,0.9-0.4,1.4l0.1,0.1l0,0
				c0.4,0.5,1.1,0.7,1.7,0.4l35.2-20.3c0.5-0.2,0.7-0.9,0.4-1.5C136.1,58.5,136.1,58.4,135.9,58.4z"/>
			<path class="st1" d="M135.9,58.4L135.9,58.4c-0.4-0.5-1.1-0.6-1.7-0.4l-18.3,10.5l1.5,2L135.7,60c0.5-0.2,0.7-0.9,0.4-1.5
				C136.1,58.5,136.1,58.4,135.9,58.4z"/>
			<path class="st13" d="M133.1,54.4L133.1,54.4c-0.4-0.5-1.1-0.7-1.7-0.4L96.1,74.4c-0.5,0.2-0.7,0.9-0.4,1.4l0.1,0.1l0,0
				c0.4,0.5,1.1,0.6,1.7,0.4l35.2-20.3C133.2,55.7,133.5,55,133.1,54.4C133.1,54.6,133.1,54.6,133.1,54.4z"/>
			<path class="st1" d="M133.1,54.4L133.1,54.4c-0.4-0.5-1.1-0.7-1.7-0.4l-32,18.5l1.5,2l32-18.5c0.5-0.2,0.7-0.9,0.4-1.4
				C133.2,54.6,133.1,54.6,133.1,54.4z"/>
		</g>
	</g>
	<g id="freepik--Cables--inject-2">
		<g id="freepik--Cable--inject-2">
			<path class="st1" d="M283.8,371.6c-0.1,0.2-0.5,0.4-0.9,0.2l0,0l-48.4-28c-1.5-0.7-3.3-0.7-4.8,0l-97,56c-1,0.5-2,0.7-3,0.7
				c-1.1,0-2.1-0.2-3.1-0.7l-56-32.3c-1.1-0.5-1.7-1.7-1.2-3c0.2-0.6,0.7-1.1,1.2-1.2l23-13.3c0.1,0,0.2,0,0.2,0
				c0.2,0.1,0.5,0.5,0.5,0.7c0,0.1,0,0.1-0.1,0.2c0,0,0,0-0.1,0h-0.1l-22.9,13.3c-0.4,0.1-0.7,0.5-0.9,1c0,0.4,0.2,0.7,0.9,1
				l56,32.3c1.5,0.7,3.3,0.7,4.8,0l97-56c1.9-1,4.2-1,6.1,0l48.4,28C283.8,371,283.9,371.4,283.8,371.6z"/>
			<path class="st1" d="M273.5,377.5c-0.1,0.2-0.5,0.4-0.9,0.2l-38.3-22c-1.5-0.7-3.3-0.7-4.8,0l-97,56c-1,0.5-2,0.7-3,0.7
				c-1.1,0-2.1-0.2-3.1-0.7l-76.4-44.1c-1.1-0.5-1.7-1.7-1.2-3c0.2-0.6,0.7-1.1,1.2-1.2l33.2-19.2l0,0c0.1,0,0.2,0,0.2,0
				c0.2,0.1,0.4,0.5,0.4,0.7c0,0.1,0,0.2-0.1,0.2l0,0l-33.2,19.2c-0.4,0.1-0.7,0.6-0.9,1c0,0.4,0.2,0.7,0.9,1l76.4,44.1
				c1.5,0.7,3.3,0.7,4.8,0l97-56c1.9-1,4.2-1,6.1,0l38.3,22C273.7,376.8,273.8,377.2,273.5,377.5L273.5,377.5z"/>
			<path class="st1" d="M263.4,383.5c-0.1,0.2-0.5,0.4-0.9,0.2l-28-16.1c-1.5-0.7-3.3-0.7-4.8,0l-97,56c-1,0.5-2,0.7-3,0.7
				c-1.1,0-2.1-0.2-3.1-0.7l-97-56c-0.9-0.4-1.4-1.2-1.5-2.1c0.1-0.9,0.6-1.7,1.5-2.1l43.5-25c0,0,0.1,0,0.1-0.1c0.1,0,0.2,0,0.2,0
				c0.2,0.1,0.4,0.5,0.5,0.7c0,0.1,0,0.2-0.1,0.2l0,0l-43.6,25.1c-0.5,0.2-0.9,0.6-0.9,1c0,0.4,0.2,0.7,0.9,1l97,56
				c1.5,0.7,3.3,0.7,4.8,0l97-56c1.9-1,4.2-1,6.1,0l28,16.1C263.4,382.7,263.5,383.1,263.4,383.5
				C263.4,383.4,263.4,383.5,263.4,383.5z"/>
			<path class="st1" d="M253.1,389.3c-0.1,0.2-0.5,0.4-0.9,0.2l-17.7-10.3c-1.5-0.7-3.3-0.7-4.8,0l-97,56c-1,0.5-2,0.7-3,0.7
				c-1.1,0-2.1-0.2-3.1-0.7L9.2,367.5c-1.1-0.5-1.7-1.9-1.2-3c0.2-0.6,0.7-1,1.2-1.2l53.6-31c0,0,0,0,0.1,0s0.2,0,0.2,0
				c0.2,0.1,0.5,0.5,0.5,0.7c0,0.1,0,0.1,0,0.2h-0.1l0,0l-53.6,31c-0.4,0.1-0.7,0.6-0.9,1c0,0.4,0.2,0.7,0.9,1L127.4,434
				c1.5,0.7,3.3,0.7,4.8,0l97-56c1.9-1,4.2-1,6.1,0l17.7,10.3c0.2,0.1,0.4,0.6,0.2,0.9C253.2,389.3,253.1,389.3,253.1,389.3z"/>
			<g class="st0">
				<path d="M283.8,371.6c-0.1,0.2-0.5,0.4-0.9,0.2l0,0l-48.4-28c-1.5-0.7-3.3-0.7-4.8,0l-97,56c-1,0.5-2,0.7-3,0.7
					c-1.1,0-2.1-0.2-3.1-0.7l-56-32.3c-1.1-0.5-1.7-1.7-1.2-3c0.2-0.6,0.7-1.1,1.2-1.2l23-13.3c0.1,0,0.2,0,0.2,0
					c0.2,0.1,0.5,0.5,0.5,0.7c0,0.1,0,0.1-0.1,0.2c0,0,0,0-0.1,0h-0.1l-22.9,13.3c-0.4,0.1-0.7,0.5-0.9,1c0,0.4,0.2,0.7,0.9,1
					l56,32.3c1.5,0.7,3.3,0.7,4.8,0l97-56c1.9-1,4.2-1,6.1,0l48.4,28C283.8,371,283.9,371.4,283.8,371.6z"/>
				<path d="M273.5,377.5c-0.1,0.2-0.5,0.4-0.9,0.2l-38.3-22c-1.5-0.7-3.3-0.7-4.8,0l-97,56c-1,0.5-2,0.7-3,0.7
					c-1.1,0-2.1-0.2-3.1-0.7l-76.4-44.1c-1.1-0.5-1.7-1.7-1.2-3c0.2-0.6,0.7-1.1,1.2-1.2l33.2-19.2l0,0c0.1,0,0.2,0,0.2,0
					c0.2,0.1,0.4,0.5,0.4,0.7c0,0.1,0,0.2-0.1,0.2l0,0l-33.2,19.2c-0.4,0.1-0.7,0.6-0.9,1c0,0.4,0.2,0.7,0.9,1l76.4,44.1
					c1.5,0.7,3.3,0.7,4.8,0l97-56c1.9-1,4.2-1,6.1,0l38.3,22C273.7,376.8,273.8,377.2,273.5,377.5L273.5,377.5z"/>
				<path d="M263.4,383.5c-0.1,0.2-0.5,0.4-0.9,0.2l-28-16.1c-1.5-0.7-3.3-0.7-4.8,0l-97,56c-1,0.5-2,0.7-3,0.7
					c-1.1,0-2.1-0.2-3.1-0.7l-97-56c-0.9-0.4-1.4-1.2-1.5-2.1c0.1-0.9,0.6-1.7,1.5-2.1l43.5-25c0,0,0.1,0,0.1-0.1c0.1,0,0.2,0,0.2,0
					c0.2,0.1,0.4,0.5,0.5,0.7c0,0.1,0,0.2-0.1,0.2l0,0l-43.6,25.1c-0.5,0.2-0.9,0.6-0.9,1c0,0.4,0.2,0.7,0.9,1l97,56
					c1.5,0.7,3.3,0.7,4.8,0l97-56c1.9-1,4.2-1,6.1,0l28,16.1C263.4,382.7,263.5,383.1,263.4,383.5
					C263.4,383.4,263.4,383.5,263.4,383.5z"/>
				<path d="M253.1,389.3c-0.1,0.2-0.5,0.4-0.9,0.2l-17.7-10.3c-1.5-0.7-3.3-0.7-4.8,0l-97,56c-1,0.5-2,0.7-3,0.7
					c-1.1,0-2.1-0.2-3.1-0.7L9.2,367.5c-1.1-0.5-1.7-1.9-1.2-3c0.2-0.6,0.7-1,1.2-1.2l53.6-31c0,0,0,0,0.1,0s0.2,0,0.2,0
					c0.2,0.1,0.5,0.5,0.5,0.7c0,0.1,0,0.1,0,0.2h-0.1l0,0l-53.6,31c-0.4,0.1-0.7,0.6-0.9,1c0,0.4,0.2,0.7,0.9,1L127.4,434
					c1.5,0.7,3.3,0.7,4.8,0l97-56c1.9-1,4.2-1,6.1,0l17.7,10.3c0.2,0.1,0.4,0.6,0.2,0.9C253.2,389.3,253.1,389.3,253.1,389.3z"/>
			</g>
		</g>
	</g>
	<g id="freepik--Device--inject-2">
		<g id="freepik--device--inject-2">
			<g id="freepik--Monitor--inject-2">
				<path class="st13" d="M396.5,403.1l32.6-18.8c3.3-2,5.1-4.5,5.1-7.1s0-4.6,0-4.6l-30.6-17.3c-1.9-1.2-3.1-3.3-3.2-5.6v-40.1
					l-56.8,32.8v40.1c0.1,2.2,1.4,4.3,3.2,5.6l25.6,14.9C378.9,406.9,389.8,406.9,396.5,403.1z"/>
				<path class="st15" d="M357,389.6v4.5l-10.4-6.1c-1.9-1.2-3.1-3.3-3.2-5.6v-40.1l10.9-6.2c0.2,2.7,0.5,5.6,0.6,8.4l-7.6,4.3v31.5
					c0.1,2.2,1.4,4.3,3.2,5.6L357,389.6z"/>
				<path class="st6" d="M347.4,380.3c0.1,2.2,1.4,4.3,3.2,5.6l21.7,12.6c6.7,3.8,17.6,3.8,24.3,0l32.6-18.8c6.7-3.8,6.7-10.2,0-14
					L407.4,353c-1.9-1.2-3.1-3.3-3.2-5.6v-31.3l-56.8,32.7V380.3z"/>
				<path class="st15" d="M414,356.9L414,356.9l-6.6-3.8c-1.9-1.2-3.1-3.3-3.2-5.6v-31.3l-56.8,32.7v31.5c0.1,2.2,1.4,4.3,3.2,5.6
					l6.4,3.7L414,356.9z"/>
				<path class="st15" d="M434.2,372.6v4.6c0,2.5-1.7,5.1-5.1,7.1l-32.6,18.8c-3.6,1.9-7.6,2.8-11.6,2.8v-4.6c4.1,0,8.1-1,11.6-2.8
					l32.6-18.8C432.4,377.8,434.2,375.2,434.2,372.6z"/>
				<path class="st5" d="M256.1,423.5c2.5,1.2,5.4,1.1,7.8-0.1c28-16.1,192-110.8,219.8-126.9c2.4-1.6,3.8-4.2,4.1-7.1V96.9
					c0.1-4.2-3.1-7.7-7.3-7.9c-1.5,0-3,0.4-4.3,1.1L256.3,217.2c-2.4,1.6-3.8,4.2-4.1,7.1v192.5C252.4,419.4,253.7,422,256.1,423.5z
					"/>
				<path class="st1" d="M263.9,423.4l219.8-126.9c2.4-1.6,3.8-4.2,4.1-7.1V96.9c0-2.6-1.9-3.6-4.1-2.4L263.9,221.6
					c-2.4,1.6-3.8,4.2-4.1,7.1v192.5C259.8,423.6,261.7,424.7,263.9,423.4z"/>
				<path class="st6" d="M263.9,423.4l219.8-126.9c2.4-1.6,3.8-4.2,4.1-7.1V96.9c0-2.6-1.9-3.6-4.1-2.4L263.9,221.6
					c-2.4,1.6-3.8,4.2-4.1,7.1v192.5C259.8,423.6,261.7,424.7,263.9,423.4z"/>
				<path d="M263.3,424.2c-3.7,2-8.3,0.5-10.2-3.2c-0.6-1.1-0.9-2.5-0.9-3.8v-21.7l7.6,4.3v21.7C259.8,423.9,261.3,425,263.3,424.2z
					"/>
				<path class="st13" d="M259.8,414.3v7.3c0,2.6,1.9,3.6,4.1,2.4L483.7,297c2.4-1.6,3.8-4.2,4.1-7.1v-7.3L259.8,414.3z"/>
				<path class="st1" d="M267.5,398V231.2c0.1-1.7,1-3.3,2.5-4.2l207.9-120c1.4-0.7,2.5-0.1,2.5,1.4v166.9c-0.1,1.7-1,3.3-2.5,4.2
					l-207.9,120C268.6,400.2,267.5,399.6,267.5,398z"/>
				<path class="st1" d="M373.9,352.2c-1.2,0.7-2,2.1-2.1,3.6c0,1.4,0.9,1.9,2.1,1.2c1.2-0.7,2-2.1,2.1-3.6
					C375.8,352,375,351.5,373.9,352.2z"/>
				<path class="st13" d="M261,224.6c-0.7,1.2-1.1,2.6-1.2,4v185.6l-7.6-4.3V224.2c0.1-1.4,0.5-2.8,1.2-4L261,224.6z"/>
			</g>
		</g>
	</g>
	<path class="st10" d="M334.2,281.9v43.7l87.4-50.4v-87.4l-87.4,50.4V281.9z M404.6,237.8c2.2-0.7,4-0.7,5.4,0
		c0.7,0.4,2,1.2,2.1,1.6c0,0.1-3.7,4.8-6.1,7.6c-0.1,0.1-0.4-0.1-0.7-0.4c-1.1-1-2.4-1-4.1-0.1c-2.6,1.4-4.3,3.7-4.3,6.1
		c0,0.6,0.1,1.1,0.4,1.4c0.6,0.9,1.6,1,5.1,0.5c6.3-0.9,8.9-0.7,10.7,0.9c1.9,1.7,2.2,5.9,1,10c-1.4,4.5-4.8,8.9-9.7,12.5
		c-1.5,1.1-5.1,3.1-6.7,3.8c-3.5,1.4-6.8,1.6-8.9,0.5c-0.7-0.4-2.4-1.9-2.2-2.1c0-0.1,0.4-0.5,0.7-1c0.4-0.5,1.9-2.1,3.2-3.7
		l2.5-2.8l0.5,0.5c0.7,0.7,2.4,1.4,3.3,1.2c2.8-0.1,6.6-2.6,8.5-5.3c0.7-1.1,1.2-2.4,1.1-3.2c0-1-0.1-1.4-0.6-1.9
		c-0.6-0.6-2.1-0.6-5.9,0c-4.5,0.6-6.4,0.6-8.2-0.4c-1.1-0.6-2-1.6-2.4-3c-0.4-1-0.4-4.1-0.1-5.4c0.9-5,4.2-9.8,8.9-13.5
		C399.5,240.3,403.1,238.3,404.6,237.8z M384.1,253.3v3.6l-11.4,6.6v32.3l-8.1,4.7v-32.3l-11.4,6.6v-3.5c0-2,0-3.6,0.1-3.7
		c0-0.1,6.9-4.1,15.4-8.9l15.2-8.8L384.1,253.3z"/>
</g>
</svg>
